<svg id="Group_1" data-name="Group 1" xmlns="http://www.w3.org/2000/svg" xmlns:xlink="http://www.w3.org/1999/xlink" width="1681.073" height="363.721" viewBox="0 0 1681.073 363.721">
  <defs>
    <clipPath id="clip-path">
      <rect id="Rectangle_74" data-name="Rectangle 74" width="1681.073" height="363.721" fill="none"/>
    </clipPath>
  </defs>
  <g id="Group_60" data-name="Group 60" clip-path="url(#clip-path)">
    <path id="Path_212" data-name="Path 212" d="M878.718,36.33c-6.923-.6-13.762-1.086-20.558-1.523l-.013-.025s-1.6-.1-3.975-.231c-.983-.059-1.982-.134-2.963-.19l.014.033c-.713-.036-1.464-.073-2.228-.109,6.958,19.216,19.021,43.935,34.819,72.178,124.373-1.891,223.683,7.5,224.173,31.2.284,13.773-33.057,26.807-86.017,36.274-.448.726-.9,1.447-1.348,2.171,64.042-7.367,106.607-24.334,108.625-47.429,3.386-38.774-108.782-80.12-250.53-92.347" transform="translate(551.75 22.282)" fill="#00a12f"/>
    <path id="Path_213" data-name="Path 213" d="M848.794,15.39c10.741-7.04,36.4,10.63,69.064,44.786,1.272.132,2.546.262,3.813.4C883.77,15.7,849.434-7.75,829.811,2.306c-34.8,17.832-10.169,134.194,55.023,259.9q3.618,6.977,7.3,13.775l-.005.013s2.33,4.247,5.08,9.264c.206.371.409.756.616,1.127v0l1.63,2.976c12.492-18.22,26.464-42.392,41.143-70.671-67.271-102.776-111.6-190.326-91.809-203.3" transform="translate(529.018 0)" fill="#ffc000"/>
    <path id="Path_214" data-name="Path 214" d="M977.456,88.528C926.172,202.916,874.924,290.091,852.911,280.435c-13.141-5.765-10.3-43.735,4.8-98.533l-.01-.023q-.505-1.04-1-2.079v0c-22.1,63.646-25.412,111.656-4.579,123.586,33.928,19.429,119.011-64.161,190.039-186.7q6.459-11.142,12.439-22.176c-21.437-2.938-47.659-4.91-77.144-5.974" transform="translate(544.72 57.533)" fill="#1da7e0"/>
    <path id="Path_215" data-name="Path 215" d="M87.639,284.887q-21.625,0-43.06-1.32A306.3,306.3,0,0,1,0,277.347V23.93a380.98,380.98,0,0,1,39.837-5.092q21.623-1.7,40.214-1.7a275.767,275.767,0,0,1,46.1,3.582q21.056,3.588,36.231,12.255A64.492,64.492,0,0,1,186.091,55.8q8.536,14.141,8.536,34.884,0,31.3-30.351,49.4,25.04,9.429,34.144,25.643t9.106,36.58q0,41.1-30.162,61.844T87.639,284.887M57.667,122.731H86.5q27.317,0,39.078-6.976t11.76-22.438q0-15.839-12.14-22.249t-35.662-6.41q-7.6,0-16.314.188t-15.555.942Zm0,44.877v67.5q6.447.762,14.037,1.132t16.694.378q26.55,0,42.871-7.542t16.314-27.906q0-18.1-13.658-25.832t-39.078-7.73Z" transform="translate(0 11.14)" fill="#fff"/>
    <path id="Path_216" data-name="Path 216" d="M132.68,159.908q0-26.389,8.157-46.2t21.437-32.994a89.2,89.2,0,0,1,30.541-19.99,96.152,96.152,0,0,1,35.473-6.788q42.483,0,67.152,25.832T320.1,155.761q0,4.905-.378,10.747t-.76,10.371H190.728a37.269,37.269,0,0,0,16.314,27.527q14.411,10.181,38.7,10.181a164.334,164.334,0,0,0,30.539-2.826q14.983-2.829,24.471-6.976l7.586,45.629a78.321,78.321,0,0,1-12.14,4.524,160.185,160.185,0,0,1-16.883,3.96q-9.3,1.7-19.916,2.828a200.247,200.247,0,0,1-21.246,1.132q-26.946,0-46.855-7.919T158.29,233.256a85.909,85.909,0,0,1-19.348-32.618,128.479,128.479,0,0,1-6.261-40.729m132.788-21.495A58,58,0,0,0,263,124.462a34.8,34.8,0,0,0-6.449-12.067,34.39,34.39,0,0,0-11-8.673q-6.642-3.4-16.5-3.4a38.16,38.16,0,0,0-16.314,3.207,33.715,33.715,0,0,0-11.381,8.484,37.973,37.973,0,0,0-7.02,12.255,79.937,79.937,0,0,0-3.6,14.141Z" transform="translate(86.227 35.056)" fill="#fff"/>
    <path id="Path_217" data-name="Path 217" d="M257.773,30.765l56.53-9.05V80.166h67.909v46.761H314.3V196.69q0,17.732,6.26,28.284t25.228,10.558a108.606,108.606,0,0,0,18.781-1.7,96.891,96.891,0,0,0,17.641-4.714l7.967,43.745a160.735,160.735,0,0,1-22.762,7.165q-12.52,3.012-30.731,3.016-23.147,0-38.32-6.222t-24.28-17.347a64.384,64.384,0,0,1-12.711-26.962,158.092,158.092,0,0,1-3.6-35.073Z" transform="translate(167.523 14.112)" fill="#fff"/>
    <path id="Path_218" data-name="Path 218" d="M433.032,17.143q58.8,0,90.3,20.553t31.488,67.314q0,47.143-31.868,68.068t-91.054,20.929H413.3v87.489H354.118V23.931a338.135,338.135,0,0,1,40.975-5.28q21.625-1.5,37.939-1.508M436.825,67.3q-6.457,0-12.709.376T413.3,68.43v75.421h18.591q30.73,0,46.284-8.3t15.557-30.921q0-10.936-3.984-18.1a30.242,30.242,0,0,0-11.381-11.5A51.6,51.6,0,0,0,460.348,69a149.515,149.515,0,0,0-23.522-1.7" transform="translate(230.137 11.141)" fill="#fff"/>
    <path id="Path_219" data-name="Path 219" d="M565.781,296.405q-24.667-.379-40.026-5.28t-24.281-13.765a45.519,45.519,0,0,1-12.14-21.493,115.242,115.242,0,0,1-3.226-28.472V9.05L542.638,0V216.082a73.534,73.534,0,0,0,1.138,13.575,23.331,23.331,0,0,0,4.362,10.183,23.062,23.062,0,0,0,9.3,6.788q6.064,2.643,16.314,3.394Z" transform="translate(315.915)" fill="#fff"/>
    <path id="Path_220" data-name="Path 220" d="M631.108,53.941q25.041,0,41.732,5.656t26.746,16.217a59.6,59.6,0,0,1,14.229,25.642,125.879,125.879,0,0,1,4.173,33.564v116.9q-12.147,2.643-33.767,6.222t-52.356,3.582a166.875,166.875,0,0,1-35.093-3.394,76.345,76.345,0,0,1-27.125-11.124,50.931,50.931,0,0,1-17.453-20.176q-6.074-12.443-6.07-30.544,0-17.341,7.018-29.414a53.833,53.833,0,0,1,18.781-19.233,85.257,85.257,0,0,1,26.936-10.371,152.2,152.2,0,0,1,31.49-3.206,181.091,181.091,0,0,1,19.538.944,88.424,88.424,0,0,1,13.848,2.45v-5.28q0-14.324-8.727-23T624.657,100.7a195.044,195.044,0,0,0-28.454,2.074,122.776,122.776,0,0,0-24.279,5.847l-7.21-45.253q4.928-1.5,12.331-3.206t16.125-3.018q8.721-1.317,18.4-2.262t19.539-.944m4.552,164.418q8.34,0,15.934-.376a110.1,110.1,0,0,0,12.141-1.13V174.238q-3.413-.75-10.245-1.508a115.027,115.027,0,0,0-12.52-.754,113.516,113.516,0,0,0-14.986.942,39.538,39.538,0,0,0-12.33,3.582,21.1,21.1,0,0,0-8.347,7.167,19.835,19.835,0,0,0-3.035,11.312q0,13.206,8.915,18.291t24.471,5.09" transform="translate(354.919 35.056)" fill="#fff"/>
    <path id="Path_221" data-name="Path 221" d="M859.4,57.141q-17.116,57.324-35.751,107.475t-40.7,97.294a220.685,220.685,0,0,1-15.957,28.848,89.161,89.161,0,0,1-17.482,19.609,61.788,61.788,0,0,1-21.465,11.315q-11.969,3.579-27.921,3.582a115.03,115.03,0,0,1-24.513-2.45,109.959,109.959,0,0,1-18.424-5.469l9.865-44.875a97.176,97.176,0,0,0,15.56,4.148,88.143,88.143,0,0,0,14.428,1.132q15.181,0,23.34-8.107T734.24,247.2q-19.365-37.7-38.721-84.659t-36.432-105.4H719.03q3.806,14.708,8.956,31.864t10.86,34.7q5.709,17.534,11.619,34.128T761.71,188q4.945-13.574,10.285-30.168T782.471,123.7q5.138-17.534,9.9-34.7t8.573-31.864Z" transform="translate(427.098 37.135)" fill="#fff"/>
  </g>
</svg>
