<svg id="Group_61" data-name="Group 61" xmlns="http://www.w3.org/2000/svg" xmlns:xlink="http://www.w3.org/1999/xlink" width="2955.896" height="150.773" viewBox="0 0 2955.896 150.773">
  <defs>
    <clipPath id="clip-path">
      <rect id="Rectangle_17" data-name="Rectangle 17" width="2955.896" height="150.773" fill="none"/>
    </clipPath>
    <clipPath id="clip-path-2">
      <path id="Path_123" data-name="Path 123" d="M1435.016,44.761a5.32,5.32,0,0,0-.334,2.457c0,1.18-.092,10.745-7.1,17.4,0,0-2.135,1.965,1.593,1.971a11.372,11.372,0,0,0,11.458-11.321,11.152,11.152,0,0,0-.776-4.1s-.229-.552-.62-.52-.428.774-.443,1.542a15.52,15.52,0,0,1-2.156,7.013c-.746,1.3-1.113,1.689-1.806,1.454,0,0-.745-.152-.149-1.306a24.066,24.066,0,0,0,2.548-12.015c-.2-2.9-.678-3.711-1.138-3.711s-.926.834-1.076,1.137" transform="translate(-1426.974 -43.624)" fill="none"/>
    </clipPath>
    <linearGradient id="linear-gradient" x1="-99.063" y1="2.624" x2="-98.993" y2="2.624" gradientUnits="objectBoundingBox">
      <stop offset="0" stop-color="#de152b"/>
      <stop offset="0.417" stop-color="#be1623"/>
      <stop offset="1" stop-color="#971919"/>
    </linearGradient>
    <clipPath id="clip-path-3">
      <path id="Path_124" data-name="Path 124" d="M1429.93,44.183a11.35,11.35,0,0,0-7.886,10.76,11.04,11.04,0,0,0,1.918,6.279c.488.706,1.871-.3,1.871-.3,5.815-4.494,6.05-13.11,6.083-15.391.016-1.255-.585-1.535-1.131-1.535a2.3,2.3,0,0,0-.856.19" transform="translate(-1422.044 -43.993)" fill="none"/>
    </clipPath>
    <linearGradient id="linear-gradient-2" x1="-135.555" y1="3.507" x2="-135.46" y2="3.507" gradientUnits="objectBoundingBox">
      <stop offset="0" stop-color="#ffea04"/>
      <stop offset="0.063" stop-color="#fee407"/>
      <stop offset="0.427" stop-color="#f9c917"/>
      <stop offset="0.751" stop-color="#f6b921"/>
      <stop offset="1" stop-color="#f6b425"/>
    </linearGradient>
    <clipPath id="clip-path-4">
      <path id="Path_125" data-name="Path 125" d="M1433.99,43.057a4.586,4.586,0,0,0-1.5,3.607c.039,1.753-.116,12.276-6.709,16.867a5.909,5.909,0,0,0-1.711,1.334c-.74.99-.783,2.183.81,1.875a11.039,11.039,0,0,0,6.743-5.388c2.912-4.988,4.379-9.475,3.624-16.937,0,0-.246-1.586-.842-1.586a.587.587,0,0,0-.413.227" transform="translate(-1423.574 -42.83)" fill="none"/>
    </clipPath>
    <linearGradient id="linear-gradient-3" x1="-210.348" y1="2.903" x2="-210.201" y2="2.903" gradientUnits="objectBoundingBox">
      <stop offset="0" stop-color="#0f4376"/>
      <stop offset="0.349" stop-color="#113f6f"/>
      <stop offset="0.829" stop-color="#17365e"/>
      <stop offset="1" stop-color="#1a3256"/>
    </linearGradient>
  </defs>
  <rect id="Rectangle_4" data-name="Rectangle 4" width="2955.893" height="150.773" transform="translate(0 0)" fill="#fff"/>
  <g id="Group_9" data-name="Group 9" transform="translate(0 0)">
    <g id="Group_8" data-name="Group 8" transform="translate(0 0)" clip-path="url(#clip-path)">
      <path id="Path_26" data-name="Path 26" d="M89.84,110.391a47.873,47.873,0,1,1,47.874-47.872A47.926,47.926,0,0,1,89.84,110.391m0-93.086a45.214,45.214,0,1,0,45.214,45.214A45.265,45.265,0,0,0,89.84,17.3" transform="translate(36.878 12.868)" fill="#002557"/>
      <path id="Path_27" data-name="Path 27" d="M56.224,48.487h-6.97V41.558h6.97v-7.1H63.4v7.1h6.972v6.929H63.4v7.094H56.224Z" transform="translate(43.282 30.283)" fill="#002557"/>
      <path id="Path_28" data-name="Path 28" d="M68.468,39.8,63.6,40.913l-1.526-6.187,8.456-2.394h5.815V61.412H68.468Z" transform="translate(54.548 28.412)" fill="#002557"/>
      <path id="Path_29" data-name="Path 29" d="M83.636,62.04a17.5,17.5,0,0,1-4.785-.618A12.1,12.1,0,0,1,75.1,59.689a8.349,8.349,0,0,1-2.454-2.66,6.8,6.8,0,0,1-.887-3.444V53.5a6.726,6.726,0,0,1,1.3-4.289,8.911,8.911,0,0,1,3.65-2.64,9.112,9.112,0,0,1-2.826-2.435A6.135,6.135,0,0,1,72.747,40.3v-.083a6.673,6.673,0,0,1,.784-3.2,7.841,7.841,0,0,1,2.228-2.557A10.719,10.719,0,0,1,79.2,32.776a16.751,16.751,0,0,1,8.868,0,10.718,10.718,0,0,1,3.444,1.691,7.842,7.842,0,0,1,2.228,2.557,6.675,6.675,0,0,1,.783,3.2V40.3a6.136,6.136,0,0,1-1.135,3.834,9.154,9.154,0,0,1-2.826,2.435,11.831,11.831,0,0,1,2.022,1.133,7.147,7.147,0,0,1,1.546,1.465,6.6,6.6,0,0,1,1.011,1.877,7.213,7.213,0,0,1,.372,2.412v.083a7.005,7.005,0,0,1-.887,3.506,8.278,8.278,0,0,1-2.454,2.681,11.823,11.823,0,0,1-3.754,1.712,18.12,18.12,0,0,1-4.785.6m0-5.98a4.466,4.466,0,0,0,3.094-.969A2.992,2.992,0,0,0,87.8,52.8v-.083a2.71,2.71,0,0,0-1.154-2.27,5.669,5.669,0,0,0-6.023,0,2.705,2.705,0,0,0-1.154,2.27V52.8a2.992,2.992,0,0,0,1.071,2.288,4.466,4.466,0,0,0,3.094.969m0-11.673a3.667,3.667,0,0,0,2.578-.887,2.917,2.917,0,0,0,.97-2.249v-.081a2.89,2.89,0,0,0-.949-2.125,3.561,3.561,0,0,0-2.6-.928,3.6,3.6,0,0,0-2.6.907,2.825,2.825,0,0,0-.949,2.1v.083a2.979,2.979,0,0,0,.969,2.268,3.619,3.619,0,0,0,2.578.907" transform="translate(63.056 28.277)" fill="#002557"/>
      <path id="Path_30" data-name="Path 30" d="M144.463,31.834v19.96c0,7.645-4.178,10.217-8.1,10.363h-1.743V58.5h1.026c2.606-.1,5.048-1.83,5.048-7.064v-19.6Z" transform="translate(118.293 27.974)" fill="#002557"/>
      <path id="Path_31" data-name="Path 31" d="M146.109,51.619c0,5.187,2.123,6.88,4.808,6.88,2.614,0,4.847-1.693,4.847-6.88V31.834h3.771v20.14c0,7.893-4.423,10.183-8.618,10.183-4.285,0-8.58-2.333-8.58-10.183V31.834h3.773Z" transform="translate(125.077 27.974)" fill="#002557"/>
      <path id="Path_32" data-name="Path 32" d="M153.239,41.993c0-7.923,4.368-10.365,8.65-10.365,4.15,0,8.507,2.35,8.606,10.119v.447h-3.68v-.306c-.15-4.949-2.382-6.6-4.926-6.6-2.681,0-4.875,1.727-4.875,7.045v9.287c0,5.334,2.194,7.062,4.875,7.062,2.6,0,4.926-1.655,4.926-6.936V49.286h-4.7V45.63h8.4v6.343c0,7.966-4.424,10.363-8.623,10.363-4.282,0-8.65-2.44-8.65-10.363Z" transform="translate(134.658 27.793)" fill="#002557"/>
      <path id="Path_33" data-name="Path 33" d="M177.167,53.524h-7.344l-2.087,8.291h-3.772l7.145-29.981h4.744l7.167,29.981h-3.773Zm-.5-3.8L173.49,36.273,170.3,49.727Z" transform="translate(144.082 27.974)" fill="#002557"/>
      <path id="Path_34" data-name="Path 34" d="M182.734,31.835c4.379,0,9.219,1.856,9.219,7.926v1.458a6.742,6.742,0,0,1-4.843,6.775l5.268,13.818h-4l-4.687-12.67h-4.154v12.67h-3.773V31.837Zm5.536,8.464c0-3.812-2.553-4.827-5-4.827h-3.728V45.5h3.728c2.431,0,5-1.069,5-4.827Z" transform="translate(154.454 27.975)" fill="#002557"/>
      <path id="Path_35" data-name="Path 35" d="M196.924,52.846c.009,4.263,2.613,5.834,5.078,5.834,3.111,0,5.061-1.653,5.061-4.982,0-3.485-2.181-4.594-5.64-5.5-2.824-.727-7.435-2.136-7.435-8.1,0-6.373,4.2-8.469,8.233-8.469,3.989,0,8.246,2.358,8.246,9.54h-3.643c0-4.116-2.24-5.884-4.6-5.884a4.228,4.228,0,0,0-4.46,4.6c.073,3.788,3.5,4.319,5.375,4.791,5.537,1.349,7.7,4.378,7.7,8.68,0,6.79-4.122,8.984-8.834,8.984-4.131,0-8.693-2.347-8.74-9.49Z" transform="translate(169.829 27.794)" fill="#002557"/>
      <rect id="Rectangle_5" data-name="Rectangle 5" width="3.895" height="29.981" transform="translate(384.627 59.808)" fill="#002557"/>
      <path id="Path_36" data-name="Path 36" d="M226.44,31.834V61.815h-3.718L212.9,40.42v21.4h-3.669V31.834h3.718l9.833,21.388V31.834Z" transform="translate(183.858 27.973)" fill="#002557"/>
      <path id="Path_37" data-name="Path 37" d="M227.648,41.993c0-7.923,4.459-10.365,8.742-10.365,4.1,0,8.351,2.275,8.571,9.8v.78h-3.772l-.024-.688c-.248-4.629-2.283-6.234-4.776-6.234-2.681,0-4.876,1.727-4.876,7.043v9.288c0,5.334,2.194,7.062,4.876,7.062,2.47,0,4.481-1.58,4.774-6.153l.027-.787h3.772v.75c-.2,7.547-4.473,9.847-8.573,9.847-4.282,0-8.742-2.44-8.742-10.363Z" transform="translate(200.043 27.793)" fill="#002557"/>
      <path id="Path_38" data-name="Path 38" d="M238.278,41.994c0-7.923,4.462-10.365,8.744-10.365,4.2,0,8.785,2.4,8.785,10.365v9.978c0,7.968-4.588,10.365-8.785,10.365-4.282,0-8.744-2.44-8.744-10.365Zm13.664.336c0-5.317-2.307-7.045-4.92-7.045-2.683,0-4.881,1.728-4.881,7.045v9.287c0,5.336,2.2,7.064,4.881,7.064,2.613,0,4.92-1.728,4.92-7.064Z" transform="translate(209.386 27.794)" fill="#002557"/>
      <path id="Path_39" data-name="Path 39" d="M266.846,31.834V61.815h-3.718L253.3,40.42v21.4h-3.667V31.834h3.716l9.833,21.388V31.834Z" transform="translate(219.366 27.973)" fill="#002557"/>
      <path id="Path_40" data-name="Path 40" d="M276.112,35.49h-5.834V61.813h-3.772V35.49H260.67V31.834h15.442Z" transform="translate(229.063 27.974)" fill="#002557"/>
      <path id="Path_41" data-name="Path 41" d="M277.78,31.835c4.379,0,9.219,1.856,9.219,7.926v1.458a6.742,6.742,0,0,1-4.843,6.775l5.266,13.818h-4l-4.688-12.67h-4.156v12.67h-3.772V31.837Zm5.534,8.464c0-3.812-2.553-4.827-5.005-4.827h-3.725V45.5h3.725c2.433,0,5.005-1.069,5.005-4.827Z" transform="translate(237.973 27.975)" fill="#002557"/>
      <path id="Path_42" data-name="Path 42" d="M281.308,41.994c0-7.923,4.46-10.365,8.742-10.365,4.2,0,8.785,2.4,8.785,10.365v9.978c0,7.968-4.588,10.365-8.785,10.365-4.282,0-8.742-2.44-8.742-10.365Zm13.664.336c0-5.317-2.308-7.045-4.922-7.045-2.683,0-4.879,1.728-4.879,7.045v9.287c0,5.336,2.2,7.064,4.879,7.064,2.615,0,4.922-1.728,4.922-7.064Z" transform="translate(247.199 27.794)" fill="#002557"/>
      <path id="Path_43" data-name="Path 43" d="M305.1,58.157v3.656H292.45V31.834h3.77V58.157Z" transform="translate(256.989 27.974)" fill="#002557"/>
      <path id="Path_44" data-name="Path 44" d="M308.189,41.993c0-7.923,4.459-10.365,8.742-10.365,4.1,0,8.351,2.275,8.571,9.8v.78h-3.773l-.024-.688c-.248-4.629-2.283-6.234-4.776-6.234-2.681,0-4.876,1.727-4.876,7.043v9.288c0,5.334,2.195,7.062,4.876,7.062,2.47,0,4.481-1.58,4.774-6.153l.026-.787H325.5v.75c-.2,7.547-4.473,9.847-8.573,9.847-4.282,0-8.742-2.44-8.742-10.363Z" transform="translate(270.819 27.793)" fill="#002557"/>
      <path id="Path_45" data-name="Path 45" d="M331.7,53.524h-7.344l-2.089,8.291H318.5l7.147-29.981h4.744l7.166,29.981h-3.773Zm-.5-3.8-3.173-13.454-3.194,13.454Z" transform="translate(279.88 27.974)" fill="#002557"/>
      <path id="Path_46" data-name="Path 46" d="M333.414,51.619c0,5.187,2.125,6.88,4.808,6.88,2.615,0,4.847-1.693,4.847-6.88V31.834h3.771v20.14c0,7.893-4.421,10.183-8.618,10.183-4.284,0-8.581-2.333-8.581-10.183V31.834h3.773Z" transform="translate(289.671 27.974)" fill="#002557"/>
      <path id="Path_47" data-name="Path 47" d="M344.005,52.846c.01,4.263,2.612,5.834,5.078,5.834,3.109,0,5.062-1.653,5.062-4.982,0-3.485-2.182-4.594-5.642-5.5-2.822-.727-7.433-2.136-7.433-8.1,0-6.373,4.2-8.469,8.232-8.469,3.987,0,8.244,2.358,8.244,9.54h-3.641c-.006-4.116-2.242-5.884-4.6-5.884a4.227,4.227,0,0,0-4.46,4.6c.073,3.788,3.494,4.319,5.375,4.791,5.535,1.349,7.7,4.378,7.7,8.68,0,6.79-4.124,8.984-8.834,8.984-4.131,0-8.695-2.347-8.742-9.49Z" transform="translate(299.075 27.794)" fill="#002557"/>
      <path id="Path_48" data-name="Path 48" d="M364.495,53.524h-7.344l-2.087,8.291h-3.773l7.145-29.981h4.744l7.168,29.981h-3.773Zm-.5-3.8-3.173-13.454-3.194,13.454Z" transform="translate(308.696 27.974)" fill="#002557"/>
      <path id="Path_49" data-name="Path 49" d="M383.354,53.524h-7.346l-2.087,8.291h-3.773l7.147-29.981h4.746L389.2,61.815h-3.772Zm-.5-3.8-3.174-13.454-3.194,13.454Z" transform="translate(325.267 27.974)" fill="#002557"/>
      <path id="Path_50" data-name="Path 50" d="M389.977,31.834c4.2,0,8.695,2.215,8.695,10.365V51.45c0,8.148-4.5,10.365-8.695,10.365h-7.889V31.834Zm4.922,10.7c0-5.319-2.307-7.045-4.922-7.045h-4.118V58.157h4.118c2.615,0,4.922-1.728,4.922-7.064Z" transform="translate(335.759 27.974)" fill="#002557"/>
      <rect id="Rectangle_6" data-name="Rectangle 6" width="3.895" height="29.981" transform="translate(738.926 59.808)" fill="#002557"/>
      <path id="Path_51" data-name="Path 51" d="M397.461,41.993c0-7.923,4.462-10.365,8.744-10.365,4.1,0,8.349,2.275,8.573,9.8v.78H411l-.026-.688c-.246-4.629-2.283-6.234-4.774-6.234-2.681,0-4.879,1.727-4.879,7.043v9.288c0,5.334,2.2,7.062,4.879,7.062,2.466,0,4.479-1.58,4.774-6.153L411,51.74h3.773v.75c-.2,7.547-4.472,9.847-8.571,9.847-4.283,0-8.744-2.44-8.744-10.363Z" transform="translate(349.268 27.793)" fill="#002557"/>
      <path id="Path_52" data-name="Path 52" d="M408.133,41.993c0-7.923,4.462-10.365,8.744-10.365,4.1,0,8.349,2.275,8.573,9.8v.78h-3.773l-.026-.688c-.246-4.629-2.283-6.234-4.774-6.234-2.682,0-4.879,1.727-4.879,7.043v9.288c0,5.334,2.2,7.062,4.879,7.062,2.466,0,4.479-1.58,4.774-6.153l.024-.787h3.772v.75c-.2,7.547-4.471,9.847-8.57,9.847-4.284,0-8.744-2.44-8.744-10.363Z" transform="translate(358.646 27.793)" fill="#002557"/>
      <rect id="Rectangle_7" data-name="Rectangle 7" width="3.895" height="29.981" transform="translate(787.592 59.808)" fill="#002557"/>
      <path id="Path_53" data-name="Path 53" d="M423.621,46.005c0-7.923,4.462-10.363,8.746-10.363,4.2,0,8.783,2.4,8.783,10.363v9.98c0,7.966-4.586,10.365-8.783,10.365-4.283,0-8.746-2.442-8.746-10.365Zm13.666.338c0-5.317-2.305-7.045-4.921-7.045-2.682,0-4.881,1.728-4.881,7.045V55.63c0,5.336,2.2,7.062,4.881,7.062,2.615,0,4.921-1.727,4.921-7.062Zm-1.67-19.282-3.789,6.021H429.2l2.469-6.021Z" transform="translate(372.256 23.78)" fill="#002557"/>
      <path id="Path_54" data-name="Path 54" d="M452.442,31.834V61.815h-3.718L438.9,40.42v21.4h-3.669V31.834h3.718l9.833,21.388V31.834Z" transform="translate(382.456 27.973)" fill="#002557"/>
      <rect id="Rectangle_8" data-name="Rectangle 8" width="3.6" height="3.568" transform="translate(838.598 86.219)" fill="#002557"/>
      <path id="Path_55" data-name="Path 55" d="M461.27,35.49v9.189h8.778v3.656H461.27v9.822h9.2v3.658H457.5V31.834h12.975V35.49Z" transform="translate(402.025 27.973)" fill="#002557"/>
      <path id="Path_56" data-name="Path 56" d="M478.924,58.157v3.656H466.278V31.834h3.771V58.157Z" transform="translate(409.74 27.974)" fill="#002557"/>
      <path id="Path_57" data-name="Path 57" d="M491.571,31.834v19.96c0,7.645-4.176,10.217-8.1,10.363h-1.747V58.5h1.028c2.6-.1,5.048-1.83,5.048-7.064v-19.6Z" transform="translate(423.313 27.974)" fill="#002557"/>
      <path id="Path_58" data-name="Path 58" d="M493.216,51.619c0,5.187,2.123,6.88,4.806,6.88,2.615,0,4.849-1.693,4.849-6.88V31.834h3.771v20.14c0,7.893-4.423,10.183-8.62,10.183-4.284,0-8.578-2.333-8.578-10.183V31.834h3.772Z" transform="translate(430.098 27.974)" fill="#002557"/>
      <path id="Path_59" data-name="Path 59" d="M504.665,35.49v9.189h8.775v3.656h-8.775v9.822h9.2v3.658H500.892V31.834h12.977V35.49Z" transform="translate(440.157 27.973)" fill="#002557"/>
      <path id="Path_60" data-name="Path 60" d="M509.652,41.993c0-7.923,4.368-10.365,8.65-10.365,4.15,0,8.507,2.35,8.606,10.119v.447h-3.68v-.306c-.15-4.949-2.383-6.6-4.926-6.6-2.681,0-4.876,1.727-4.876,7.045v9.287c0,5.334,2.195,7.062,4.876,7.062,2.6,0,4.926-1.655,4.926-6.936V49.286h-4.7V45.63h8.4v6.343c0,7.966-4.424,10.363-8.623,10.363-4.282,0-8.65-2.44-8.65-10.363Z" transform="translate(447.856 27.793)" fill="#002557"/>
      <path id="Path_61" data-name="Path 61" d="M520.968,41.994c0-7.923,4.46-10.365,8.742-10.365,4.2,0,8.785,2.4,8.785,10.365v9.978c0,7.968-4.589,10.365-8.785,10.365-4.282,0-8.742-2.44-8.742-10.365Zm13.664.336c0-5.317-2.308-7.045-4.922-7.045-2.683,0-4.879,1.728-4.879,7.045v9.287c0,5.336,2.2,7.064,4.879,7.064,2.615,0,4.922-1.728,4.922-7.064Z" transform="translate(457.799 27.794)" fill="#002557"/>
      <path id="Path_62" data-name="Path 62" d="M543.247,35.49v9.189h8.777v3.656h-8.777v9.822h9.2v3.658H539.475V31.834h12.974V35.49Z" transform="translate(474.062 27.973)" fill="#002557"/>
      <path id="Path_63" data-name="Path 63" d="M551.558,52.846c.009,4.263,2.611,5.834,5.078,5.834,3.109,0,5.061-1.653,5.061-4.982,0-3.485-2.181-4.594-5.641-5.5-2.822-.727-7.433-2.136-7.433-8.1,0-6.373,4.2-8.469,8.232-8.469,3.987,0,8.243,2.358,8.243,9.54h-3.641c0-4.116-2.241-5.884-4.6-5.884a4.227,4.227,0,0,0-4.46,4.6c.073,3.788,3.494,4.319,5.375,4.791,5.535,1.349,7.7,4.378,7.7,8.68,0,6.79-4.123,8.984-8.833,8.984-4.132,0-8.695-2.347-8.742-9.49Z" transform="translate(481.462 27.794)" fill="#002557"/>
      <path id="Path_64" data-name="Path 64" d="M569.972,35.49v9.189h8.777v3.656h-8.777v9.822h9.2v3.658H566.2V31.834h12.977V35.49Z" transform="translate(497.546 27.973)" fill="#002557"/>
      <path id="Path_65" data-name="Path 65" d="M592.133,31.834V61.815h-3.718l-9.826-21.4v21.4H574.92V31.834h3.716l9.836,21.388V31.834Z" transform="translate(505.21 27.973)" fill="#002557"/>
      <path id="Path_66" data-name="Path 66" d="M601.4,35.49h-5.834V61.813H591.79V35.49h-5.836V31.834H601.4Z" transform="translate(514.907 27.974)" fill="#002557"/>
      <path id="Path_67" data-name="Path 67" d="M603.065,31.835c4.378,0,9.218,1.856,9.218,7.926v1.458a6.742,6.742,0,0,1-4.843,6.775l5.268,13.818h-4l-4.687-12.67h-4.154v12.67h-3.772V31.837ZM608.6,40.3c0-3.812-2.554-4.827-5-4.827h-3.724V45.5h3.724c2.433,0,5-1.069,5-4.827Z" transform="translate(523.817 27.975)" fill="#002557"/>
      <path id="Path_68" data-name="Path 68" d="M610.881,35.49v9.189h8.776v3.656h-8.776v9.822h9.2v3.658H607.108V31.834h12.977V35.49Z" transform="translate(533.495 27.973)" fill="#002557"/>
      <path id="Path_69" data-name="Path 69" d="M631.018,35.49h-5.834V61.813h-3.773V35.49h-5.836V31.834h15.442Z" transform="translate(540.936 27.974)" fill="#002557"/>
      <path id="Path_70" data-name="Path 70" d="M629.35,35.49v9.189h8.778v3.656H629.35v9.822h9.206v3.658H625.578V31.834h12.978V35.49Z" transform="translate(549.725 27.973)" fill="#002557"/>
      <path id="Path_71" data-name="Path 71" d="M651.512,31.834V61.815h-3.718l-9.827-21.4v21.4H634.3V31.834h3.718l9.834,21.388V31.834Z" transform="translate(557.389 27.973)" fill="#002557"/>
      <rect id="Rectangle_9" data-name="Rectangle 9" width="3.893" height="29.981" transform="translate(1213.477 59.808)" fill="#002557"/>
      <path id="Path_72" data-name="Path 72" d="M672.878,31.834V61.813h-3.662V40.807l-6.354,21.006h-2.449l-6.352-21.006V61.813H650.4V31.834h4.573l6.667,22.2,6.664-22.2Z" transform="translate(571.536 27.974)" fill="#002557"/>
      <rect id="Rectangle_10" data-name="Rectangle 10" width="3.893" height="29.981" transform="translate(1249.078 59.808)" fill="#002557"/>
      <path id="Path_73" data-name="Path 73" d="M673.179,35.49v9.189h8.778v3.656h-8.778v9.822h9.2v3.658H669.406V31.834h12.976V35.49Z" transform="translate(588.239 27.973)" fill="#002557"/>
      <path id="Path_74" data-name="Path 74" d="M695.341,31.834V61.815h-3.718L681.8,40.42v21.4h-3.67V31.834h3.716l9.836,21.388V31.834Z" transform="translate(595.903 27.973)" fill="#002557"/>
      <path id="Path_75" data-name="Path 75" d="M704.6,35.49h-5.832V61.813H695V35.49h-5.832V31.834H704.6Z" transform="translate(605.601 27.974)" fill="#002557"/>
      <path id="Path_76" data-name="Path 76" d="M698.649,41.994c0-7.923,4.462-10.365,8.743-10.365,4.2,0,8.786,2.4,8.786,10.365v9.978c0,7.968-4.589,10.365-8.786,10.365-4.281,0-8.743-2.44-8.743-10.365Zm13.664.336c0-5.317-2.3-7.045-4.921-7.045-2.682,0-4.881,1.728-4.881,7.045v9.287c0,5.336,2.2,7.064,4.881,7.064,2.616,0,4.921-1.728,4.921-7.064Z" transform="translate(613.936 27.794)" fill="#002557"/>
      <path id="Path_77" data-name="Path 77" d="M712.7,45.892V49.46L711.324,53h-1.332l.62-3.538H709.1V45.892Z" transform="translate(623.116 40.327)" fill="#002557"/>
      <path id="Path_78" data-name="Path 78" d="M729.772,31.834v19.96c0,7.645-4.176,10.217-8.1,10.363h-1.746V58.5h1.028c2.6-.1,5.047-1.83,5.047-7.064v-19.6Z" transform="translate(632.632 27.974)" fill="#002557"/>
      <path id="Path_79" data-name="Path 79" d="M731.418,51.619c0,5.187,2.124,6.88,4.805,6.88,2.616,0,4.849-1.693,4.849-6.88V31.834h3.77v20.14c0,7.893-4.422,10.183-8.619,10.183-4.284,0-8.577-2.333-8.577-10.183V31.834h3.772Z" transform="translate(639.417 27.974)" fill="#002557"/>
      <path id="Path_80" data-name="Path 80" d="M742.866,35.49v9.189h8.773v3.656h-8.773v9.822h9.2v3.658H739.094V31.834h12.974V35.49Z" transform="translate(649.476 27.973)" fill="#002557"/>
      <path id="Path_81" data-name="Path 81" d="M747.854,41.993c0-7.923,4.366-10.365,8.649-10.365,4.148,0,8.505,2.35,8.6,10.119v.447h-3.68v-.306c-.151-4.949-2.383-6.6-4.925-6.6-2.682,0-4.878,1.727-4.878,7.045v9.287c0,5.334,2.2,7.062,4.878,7.062,2.6,0,4.925-1.655,4.925-6.936V49.286h-4.7V45.63h8.4v6.343c0,7.966-4.424,10.363-8.621,10.363-4.283,0-8.649-2.44-8.649-10.363Z" transform="translate(657.175 27.793)" fill="#002557"/>
      <path id="Path_82" data-name="Path 82" d="M771.78,53.524h-7.344l-2.087,8.291h-3.772l7.145-29.981h4.744l7.167,29.981h-3.773Zm-.5-3.8L768.1,36.273l-3.193,13.454Z" transform="translate(666.597 27.974)" fill="#002557"/>
      <path id="Path_83" data-name="Path 83" d="M777.725,41.993c0-7.923,4.459-10.365,8.741-10.365,4.1,0,8.353,2.275,8.572,9.8v.78h-3.773l-.026-.688c-.245-4.629-2.281-6.234-4.774-6.234-2.681,0-4.876,1.727-4.876,7.043v9.288c0,5.334,2.195,7.062,4.876,7.062,2.47,0,4.48-1.58,4.774-6.153l.026-.787h3.773v.75c-.2,7.547-4.473,9.847-8.572,9.847-4.282,0-8.741-2.44-8.741-10.363Z" transform="translate(683.424 27.793)" fill="#002557"/>
      <path id="Path_84" data-name="Path 84" d="M788.356,41.994c0-7.923,4.462-10.365,8.744-10.365,4.2,0,8.786,2.4,8.786,10.365v9.978c0,7.968-4.589,10.365-8.786,10.365-4.282,0-8.744-2.44-8.744-10.365Zm13.664.336c0-5.317-2.3-7.045-4.92-7.045-2.682,0-4.881,1.728-4.881,7.045v9.287c0,5.336,2.2,7.064,4.881,7.064,2.616,0,4.92-1.728,4.92-7.064Z" transform="translate(692.766 27.794)" fill="#002557"/>
      <path id="Path_85" data-name="Path 85" d="M816.926,31.834V61.815h-3.718l-9.826-21.4v21.4h-3.669V31.834h3.716l9.835,21.388V31.834Z" transform="translate(702.746 27.973)" fill="#002557"/>
      <path id="Path_86" data-name="Path 86" d="M840.571,31.834V61.813H836.91V40.807l-6.352,21.006h-2.452l-6.351-21.006V61.813h-3.663V31.834h4.574l6.667,22.2L836,31.834Z" transform="translate(718.896 27.974)" fill="#002557"/>
      <path id="Path_87" data-name="Path 87" d="M832,41.994c0-7.923,4.458-10.365,8.744-10.365,4.193,0,8.784,2.4,8.784,10.365v9.978c0,7.968-4.592,10.365-8.784,10.365-4.286,0-8.744-2.44-8.744-10.365Zm13.664.336c0-5.317-2.309-7.045-4.92-7.045-2.687,0-4.881,1.728-4.881,7.045v9.287c0,5.336,2.194,7.064,4.881,7.064,2.611,0,4.92-1.728,4.92-7.064Z" transform="translate(731.121 27.794)" fill="#002557"/>
      <path id="Path_88" data-name="Path 88" d="M850.9,31.834c4.2,0,8.693,2.215,8.693,10.365V51.45c0,8.148-4.5,10.365-8.693,10.365h-7.889V31.834Zm4.921,10.7c0-5.319-2.305-7.045-4.921-7.045h-4.118V58.157H850.9c2.616,0,4.921-1.728,4.921-7.064Z" transform="translate(740.789 27.974)" fill="#002557"/>
      <path id="Path_89" data-name="Path 89" d="M857.611,35.49v9.189h8.777v3.656h-8.777v9.822h9.206v3.658H853.838V31.834h12.979V35.49Z" transform="translate(750.307 27.973)" fill="#002557"/>
      <path id="Path_90" data-name="Path 90" d="M869.586,31.835c4.378,0,9.217,1.856,9.217,7.926v1.458a6.739,6.739,0,0,1-4.839,6.775l5.266,13.818h-4l-4.687-12.67H866.39v12.67h-3.772V31.837Zm5.537,8.464c0-3.812-2.555-4.827-5.006-4.827H866.39V45.5h3.728c2.429,0,5.006-1.069,5.006-4.827Z" transform="translate(758.024 27.975)" fill="#002557"/>
      <path id="Path_91" data-name="Path 91" d="M886.137,53.524h-7.344l-2.087,8.291h-3.773l7.147-29.981h4.742l7.167,29.981h-3.772Zm-.5-3.8-3.173-13.454-3.192,13.454Z" transform="translate(767.088 27.974)" fill="#002557"/>
      <path id="Path_92" data-name="Path 92" d="M884.01,41.993c0-7.923,4.462-10.365,8.743-10.365,4.1,0,8.35,2.275,8.573,9.8v.78h-3.772l-.027-.688c-.246-4.629-2.282-6.234-4.774-6.234-2.68,0-4.879,1.727-4.879,7.043v9.288c0,5.334,2.2,7.062,4.879,7.062,2.467,0,4.477-1.58,4.774-6.153l.027-.787h3.772v.75c-.2,7.547-4.473,9.847-8.573,9.847-4.285,0-8.743-2.44-8.743-10.363Z" transform="translate(776.822 27.793)" fill="#002557"/>
      <rect id="Rectangle_11" data-name="Rectangle 11" width="3.893" height="29.981" transform="translate(1681.648 59.808)" fill="#002557"/>
      <path id="Path_93" data-name="Path 93" d="M899.5,46.005c0-7.923,4.458-10.363,8.742-10.363,4.2,0,8.783,2.4,8.783,10.363v9.98c0,7.966-4.586,10.365-8.783,10.365-4.283,0-8.742-2.442-8.742-10.365Zm13.667.338c0-5.317-2.309-7.045-4.925-7.045-2.682,0-4.876,1.728-4.876,7.045V55.63c0,5.336,2.193,7.062,4.876,7.062,2.616,0,4.925-1.727,4.925-7.062Zm-1.674-19.282L907.7,33.083h-2.631l2.469-6.021Z" transform="translate(790.434 23.78)" fill="#002557"/>
      <path id="Path_94" data-name="Path 94" d="M928.32,31.834V61.815H924.6l-9.826-21.4v21.4h-3.67V31.834h3.717l9.834,21.388V31.834Z" transform="translate(800.632 27.973)" fill="#002557"/>
      <rect id="Rectangle_12" data-name="Rectangle 12" width="3.6" height="3.568" transform="translate(1732.65 86.219)" fill="#002557"/>
      <path id="Path_95" data-name="Path 95" d="M940.1,31.836c4.378,0,9.218,1.883,9.218,7.926v1.7c0,5.689-4.513,7.776-8.744,7.921h-3.425V61.813h-3.771V31.836Zm5.533,8.464c0-3.788-2.553-4.827-5-4.827h-3.479V45.752h3.479c2.433,0,5-1.093,5-4.826Z" transform="translate(820.202 27.975)" fill="#002557"/>
      <path id="Path_96" data-name="Path 96" d="M950.833,31.835c4.379,0,9.218,1.856,9.218,7.926v1.458a6.742,6.742,0,0,1-4.844,6.775l5.267,13.818h-4l-4.688-12.67h-4.151v12.67h-3.772V31.837Zm5.533,8.464c0-3.812-2.552-4.827-5-4.827h-3.724V45.5h3.724c2.433,0,5-1.069,5-4.827Z" transform="translate(829.42 27.975)" fill="#002557"/>
      <path id="Path_97" data-name="Path 97" d="M954.362,41.994c0-7.923,4.462-10.365,8.745-10.365,4.2,0,8.786,2.4,8.786,10.365v9.978c0,7.968-4.589,10.365-8.786,10.365-4.283,0-8.745-2.44-8.745-10.365Zm13.665.336c0-5.317-2.305-7.045-4.92-7.045-2.682,0-4.881,1.728-4.881,7.045v9.287c0,5.336,2.2,7.064,4.881,7.064,2.615,0,4.92-1.728,4.92-7.064Z" transform="translate(838.643 27.794)" fill="#002557"/>
      <path id="Path_98" data-name="Path 98" d="M981.878,31.834V61.815h-3.772V48.335h-8.693v13.48H965.64V31.834h3.773V44.679h8.693V31.834Z" transform="translate(848.554 27.973)" fill="#002557"/>
      <rect id="Rectangle_13" data-name="Rectangle 13" width="3.893" height="29.981" transform="translate(1835.104 59.808)" fill="#002557"/>
      <path id="Path_99" data-name="Path 99" d="M988.613,31.834c4.157,0,8.569,1.928,8.569,7.066v1.33a6.216,6.216,0,0,1-4,6.057,6.689,6.689,0,0,1,4.708,6.756v1.191c0,4.924-3.512,7.581-8.993,7.581H981.33V31.834Zm5.431,21.057c0-3.13-2.01-4.733-5.251-4.733h-3.7V58.165h3.7c3.223,0,5.251-1.559,5.251-4.733ZM993.5,39.839c0-3.138-2.431-4.344-4.952-4.344H985.1v9.191h3.452c2.651,0,4.952-1.263,4.952-4.342Z" transform="translate(862.341 27.974)" fill="#002557"/>
      <rect id="Rectangle_14" data-name="Rectangle 14" width="3.893" height="29.981" transform="translate(1863.721 59.808)" fill="#002557"/>
      <path id="Path_100" data-name="Path 100" d="M1004.542,31.834c4.2,0,8.693,2.215,8.693,10.365V51.45c0,8.148-4.5,10.365-8.693,10.365h-7.889V31.834Zm4.921,10.7c0-5.319-2.306-7.045-4.921-7.045h-4.118V58.157h4.118c2.615,0,4.921-1.728,4.921-7.064Z" transform="translate(875.806 27.974)" fill="#002557"/>
      <path id="Path_101" data-name="Path 101" d="M1019.788,53.524h-7.348l-2.087,8.291h-3.772l7.148-29.981h4.744l7.164,29.981h-3.773Zm-.5-3.8-3.177-13.454-3.194,13.454Z" transform="translate(884.529 27.974)" fill="#002557"/>
      <path id="Path_102" data-name="Path 102" d="M1038.394,58.157v3.656H1025.75V31.834h3.771V58.157Z" transform="translate(901.376 27.974)" fill="#002557"/>
      <path id="Path_103" data-name="Path 103" d="M1047.039,53.524h-7.349l-2.086,8.291h-3.773l7.149-29.981h4.744l7.163,29.981h-3.773Zm-.5-3.8-3.178-13.454-3.194,13.454Z" transform="translate(908.476 27.974)" fill="#002557"/>
      <path id="Path_104" data-name="Path 104" d="M1071.78,31.834l-7.146,29.981h-4.815l-7.131-29.981h3.807l5.741,23.98,5.735-23.98Z" transform="translate(925.047 27.973)" fill="#002557"/>
      <path id="Path_105" data-name="Path 105" d="M1068.4,35.49v9.189h8.772v3.656H1068.4v9.822h9.2v3.658h-12.975V31.834H1077.6V35.49Z" transform="translate(935.54 27.973)" fill="#002557"/>
      <path id="Path_106" data-name="Path 106" d="M1090.559,31.834V61.815h-3.718l-9.826-21.4v21.4h-3.666V31.834h3.716l9.833,21.388V31.834Z" transform="translate(943.203 27.973)" fill="#002557"/>
      <path id="Path_107" data-name="Path 107" d="M1099.827,35.49h-5.834V61.813h-3.773V35.49h-5.835V31.834h15.443Z" transform="translate(952.901 27.974)" fill="#002557"/>
      <path id="Path_108" data-name="Path 108" d="M1105.754,53.524h-7.345l-2.087,8.291h-3.773l7.146-29.981h4.744l7.167,29.981h-3.771Zm-.5-3.8-3.173-13.454-3.194,13.454Z" transform="translate(960.075 27.974)" fill="#002557"/>
      <path id="Path_109" data-name="Path 109" d="M1124.61,53.524h-7.344l-2.087,8.291h-3.773l7.145-29.981h4.744l7.168,29.981h-3.773Zm-.5-3.8-3.174-13.454-3.193,13.454Z" transform="translate(976.646 27.974)" fill="#002557"/>
      <path id="Path_110" data-name="Path 110" d="M1152.994,31.834V61.813h-3.661V40.807l-6.351,21.006h-2.452l-6.352-21.006V61.813h-3.662V31.834h4.573l6.668,22.2,6.665-22.2Z" transform="translate(993.438 27.974)" fill="#002557"/>
      <path id="Path_111" data-name="Path 111" d="M1148.736,35.49v9.189h8.776v3.656h-8.776v9.822h9.206v3.658h-12.98V31.834h12.98V35.49Z" transform="translate(1006.133 27.973)" fill="#002557"/>
      <path id="Path_112" data-name="Path 112" d="M1170.9,31.834V61.815h-3.717l-9.826-21.4v21.4h-3.67V31.834h3.717l9.834,21.388V31.834Z" transform="translate(1013.797 27.973)" fill="#002557"/>
      <path id="Path_113" data-name="Path 113" d="M1164.88,41.994c0-7.923,4.462-10.365,8.741-10.365,4.2,0,8.786,2.4,8.786,10.365v9.978c0,7.968-4.589,10.365-8.786,10.365-4.28,0-8.741-2.44-8.741-10.365Zm13.662.336c0-5.317-2.305-7.045-4.921-7.045-2.684,0-4.881,1.728-4.881,7.045v9.287c0,5.336,2.2,7.064,4.881,7.064,2.616,0,4.921-1.728,4.921-7.064Z" transform="translate(1023.636 27.794)" fill="#002557"/>
      <path id="Path_114" data-name="Path 114" d="M1183.264,31.835c4.376,0,9.216,1.856,9.216,7.926v1.458a6.739,6.739,0,0,1-4.84,6.775l5.267,13.818h-4l-4.685-12.67h-4.157v12.67H1176.3V31.837ZM1188.8,40.3c0-3.812-2.552-4.827-5-4.827h-3.727V45.5h3.727c2.43,0,5-1.069,5-4.827Z" transform="translate(1033.667 27.975)" fill="#002557"/>
      <path id="Path_115" data-name="Path 115" d="M1191.082,35.49v9.189h8.776v3.656h-8.776v9.822h9.206v3.658h-12.98V31.834h12.98V35.49Z" transform="translate(1043.344 27.973)" fill="#002557"/>
      <path id="Path_116" data-name="Path 116" d="M1199.4,52.846c.007,4.263,2.609,5.834,5.078,5.834,3.107,0,5.059-1.653,5.059-4.982,0-3.485-2.179-4.594-5.64-5.5-2.824-.727-7.432-2.136-7.432-8.1,0-6.373,4.2-8.469,8.233-8.469,3.985,0,8.242,2.358,8.242,9.54h-3.64c0-4.116-2.243-5.884-4.6-5.884a4.229,4.229,0,0,0-4.462,4.6c.073,3.788,3.494,4.319,5.378,4.791,5.532,1.349,7.7,4.378,7.7,8.68,0,6.79-4.121,8.984-8.832,8.984-4.132,0-8.7-2.347-8.745-9.49Z" transform="translate(1050.744 27.794)" fill="#002557"/>
      <path id="Path_117" data-name="Path 117" d="M1221.922,31.834c4.2,0,8.7,2.215,8.7,10.365V51.45c0,8.148-4.5,10.365-8.7,10.365h-7.886V31.834Zm4.923,10.7c0-5.319-2.308-7.045-4.923-7.045h-4.115V58.157h4.115c2.615,0,4.923-1.728,4.923-7.064Z" transform="translate(1066.831 27.974)" fill="#002557"/>
      <path id="Path_118" data-name="Path 118" d="M1228.638,35.49v9.189h8.777v3.656h-8.777v9.822h9.205v3.658h-12.979V31.834h12.979V35.49Z" transform="translate(1076.347 27.973)" fill="#002557"/>
      <path id="Path_119" data-name="Path 119" d="M1244.26,35.49v9.189h8.773v3.656h-8.773v9.822h9.2v3.658h-12.975V31.834h12.975V35.49Z" transform="translate(1090.074 27.973)" fill="#002557"/>
      <path id="Path_120" data-name="Path 120" d="M1257.245,31.834c4.2,0,8.693,2.215,8.693,10.365V51.45c0,8.148-4.495,10.365-8.693,10.365h-7.89V31.834Zm4.92,10.7c0-5.319-2.3-7.045-4.92-7.045h-4.118V58.157h4.118c2.615,0,4.92-1.728,4.92-7.064Z" transform="translate(1097.869 27.974)" fill="#002557"/>
      <path id="Path_121" data-name="Path 121" d="M1272.491,53.524h-7.347l-2.088,8.291h-3.773l7.148-29.981h4.743l7.164,29.981h-3.773Zm-.5-3.8-3.177-13.454-3.193,13.454Z" transform="translate(1106.592 27.974)" fill="#002557"/>
      <path id="Path_122" data-name="Path 122" d="M1279.11,31.834c4.2,0,8.7,2.215,8.7,10.365V51.45c0,8.148-4.5,10.365-8.7,10.365h-7.885V31.834Zm4.926,10.7c0-5.319-2.309-7.045-4.926-7.045H1275V58.157h4.114c2.616,0,4.926-1.728,4.926-7.064Z" transform="translate(1117.086 27.974)" fill="#002557"/>
      <rect id="Rectangle_15" data-name="Rectangle 15" width="3.6" height="3.568" transform="translate(2407.094 86.219)" fill="#002557"/>
      <rect id="Rectangle_16" data-name="Rectangle 16" width="241.859" height="116.578" transform="translate(2495.943 16.912)" fill="#fff"/>
    </g>
  </g>
  <g id="Group_11" data-name="Group 11" transform="translate(2680.924 81.958)">
    <g id="Group_10" data-name="Group 10" clip-path="url(#clip-path-2)">
      <rect id="Rectangle_18" data-name="Rectangle 18" width="26.988" height="26.988" transform="translate(-13.018 11.492) rotate(-45)" fill="url(#linear-gradient)"/>
    </g>
  </g>
  <g id="Group_13" data-name="Group 13" transform="translate(2671.662 82.651)">
    <g id="Group_12" data-name="Group 12" clip-path="url(#clip-path-3)">
      <rect id="Rectangle_19" data-name="Rectangle 19" width="19.673" height="19.673" transform="translate(-8.967 8.968) rotate(-45)" fill="url(#linear-gradient-2)"/>
    </g>
  </g>
  <g id="Group_15" data-name="Group 15" transform="translate(2674.537 80.466)">
    <g id="Group_14" data-name="Group 14" clip-path="url(#clip-path-4)">
      <rect id="Rectangle_20" data-name="Rectangle 20" width="12.713" height="24.219" transform="translate(-0.29 0)" fill="url(#linear-gradient-3)"/>
    </g>
  </g>
  <g id="Group_17" data-name="Group 17" transform="translate(0 0)">
    <g id="Group_16" data-name="Group 16" transform="translate(0 0)" clip-path="url(#clip-path)">
      <path id="Path_126" data-name="Path 126" d="M1355.275,68.031a14.338,14.338,0,0,1-5.606-1.086,13.753,13.753,0,0,1-4.471-2.963,13.592,13.592,0,0,1-2.941-4.432,14.129,14.129,0,0,1-1.055-5.462V54.01a13.938,13.938,0,0,1,4-9.893,13.423,13.423,0,0,1,4.509-3.015,14.748,14.748,0,0,1,5.8-1.11,18.515,18.515,0,0,1,3.51.306,14.884,14.884,0,0,1,2.886.855,13.2,13.2,0,0,1,2.392,1.317,15.409,15.409,0,0,1,2.033,1.71l-3.846,4.366a15.007,15.007,0,0,0-3.272-2.245,8.451,8.451,0,0,0-3.742-.808,7.713,7.713,0,0,0-3.185.658,7.536,7.536,0,0,0-2.532,1.819,8.383,8.383,0,0,0-1.646,2.694,8.99,8.99,0,0,0-.589,3.277v.071a9.123,9.123,0,0,0,.589,3.288,8.462,8.462,0,0,0,1.626,2.715,7.629,7.629,0,0,0,5.738,2.518,8.519,8.519,0,0,0,3.984-.853,15.172,15.172,0,0,0,3.234-2.328l3.841,3.84a21.232,21.232,0,0,1-2.2,2.02,12.942,12.942,0,0,1-2.483,1.52,12.661,12.661,0,0,1-2.962.97,17.7,17.7,0,0,1-3.6.333" transform="translate(1178.579 35.142)" fill="#0b447a"/>
      <path id="Path_127" data-name="Path 127" d="M1367.061,65.025a12.078,12.078,0,0,1-4.51-.832,10.967,10.967,0,0,1-3.593-2.292,10.523,10.523,0,0,1-2.365-3.4,10.267,10.267,0,0,1-.865-4.207v-.07a10.3,10.3,0,0,1,.865-4.208,10.707,10.707,0,0,1,2.389-3.421,11.364,11.364,0,0,1,3.606-2.328,12.6,12.6,0,0,1,9.054-.015,10.972,10.972,0,0,1,3.586,2.279,10.609,10.609,0,0,1,2.378,3.412,10.309,10.309,0,0,1,.856,4.2v.083a10.265,10.265,0,0,1-.856,4.2,10.815,10.815,0,0,1-2.389,3.427,11.313,11.313,0,0,1-3.611,2.326,11.8,11.8,0,0,1-4.546.857m.082-5.078a5.562,5.562,0,0,0,2.29-.441,4.944,4.944,0,0,0,1.7-1.225,5.313,5.313,0,0,0,1.074-1.8,6.223,6.223,0,0,0,.377-2.192v-.07a6.253,6.253,0,0,0-.4-2.2,5.6,5.6,0,0,0-1.133-1.815,5.754,5.754,0,0,0-1.763-1.261,5.374,5.374,0,0,0-2.235-.46,5.684,5.684,0,0,0-2.294.438,5.071,5.071,0,0,0-1.708,1.232,5.224,5.224,0,0,0-1.073,1.79,6.261,6.261,0,0,0-.376,2.191v.083a6.065,6.065,0,0,0,.387,2.185,5.6,5.6,0,0,0,1.139,1.822,5.674,5.674,0,0,0,1.749,1.255,5.289,5.289,0,0,0,2.258.464" transform="translate(1191.342 38.15)" fill="#0b447a"/>
      <rect id="Rectangle_21" data-name="Rectangle 21" width="5.961" height="28.268" transform="translate(2573.613 74.438)" fill="#0b447a"/>
      <path id="Path_128" data-name="Path 128" d="M1377.78,74.2a12.828,12.828,0,0,1-1.389-.056c-.378-.038-.778-.1-1.194-.178v-4.6a7.794,7.794,0,0,0,1.25.115,2.13,2.13,0,0,0,1.531-.545,2.407,2.407,0,0,0,.588-1.852V47.129h5.951V67.541c0,2.3-.557,3.985-1.695,5.056a7.126,7.126,0,0,1-5.042,1.606m.629-34.582h6.269V44.85h-6.269Z" transform="translate(1208.452 34.817)" fill="#0b447a"/>
      <path id="Path_129" data-name="Path 129" d="M1390.134,64.766a6.782,6.782,0,0,1-5.274-2.046,8.14,8.14,0,0,1-1.86-5.659V43.617h5.959V55.171a4.6,4.6,0,0,0,.942,3.147,3.362,3.362,0,0,0,2.668,1.063,3.531,3.531,0,0,0,2.717-1.063,4.4,4.4,0,0,0,1-3.147V43.617h5.958V64.379h-5.958V61.412a12.749,12.749,0,0,1-1.115,1.268,7.77,7.77,0,0,1-1.357,1.073,6.815,6.815,0,0,1-1.639.744,7.087,7.087,0,0,1-2.043.269" transform="translate(1215.307 38.328)" fill="#0b447a"/>
      <path id="Path_130" data-name="Path 130" d="M1406.4,65.023a12.055,12.055,0,0,1-4.369-.78,10.023,10.023,0,0,1-5.78-5.591,11.12,11.12,0,0,1-.822-4.362v-.07a11.594,11.594,0,0,1,.763-4.186,10.534,10.534,0,0,1,2.136-3.446,10.055,10.055,0,0,1,3.267-2.326,11.256,11.256,0,0,1,8.766.079,9.112,9.112,0,0,1,3.2,2.5,10.281,10.281,0,0,1,1.883,3.587,14.876,14.876,0,0,1,.609,4.25,7.3,7.3,0,0,1-.026.736c-.011.259-.027.528-.048.81h-14.631a4.991,4.991,0,0,0,1.782,3.042,5.39,5.39,0,0,0,3.355,1.031,6.7,6.7,0,0,0,2.662-.509,8.821,8.821,0,0,0,2.433-1.627l3.41,2.983A10.461,10.461,0,0,1,1411.374,64a11.287,11.287,0,0,1-4.975,1.028m3.84-12.477a5.64,5.64,0,0,0-1.406-3.186,3.925,3.925,0,0,0-3.017-1.229,4.036,4.036,0,0,0-3.04,1.2,6,6,0,0,0-1.511,3.211Z" transform="translate(1226.229 38.15)" fill="#0b447a"/>
      <path id="Path_131" data-name="Path 131" d="M1418.687,70.832a21.466,21.466,0,0,1-4.944-.558,19.131,19.131,0,0,1-4.353-1.608l2.035-4.423a17.776,17.776,0,0,0,3.323,1.4,13.1,13.1,0,0,0,3.779.5,6.3,6.3,0,0,0,4.529-1.426,5.655,5.655,0,0,0,1.475-4.227V59.483a10.714,10.714,0,0,1-2.907,2.482,7.959,7.959,0,0,1-3.957.889,10.018,10.018,0,0,1-3.529-.631,8.672,8.672,0,0,1-2.976-1.888A8.956,8.956,0,0,1,1409.1,57.3a10.514,10.514,0,0,1-.757-4.126v-.081a10.267,10.267,0,0,1,.777-4.131,9.259,9.259,0,0,1,2.083-3.03,8.649,8.649,0,0,1,2.972-1.879,9.814,9.814,0,0,1,3.492-.639,7.993,7.993,0,0,1,3.99.889,11.249,11.249,0,0,1,2.791,2.215V43.8h5.963v16.08c0,3.692-.9,6.412-2.667,8.169a8.758,8.758,0,0,1-3.75,2.131,19.074,19.074,0,0,1-5.308.658m.708-12.86a5.752,5.752,0,0,0,2.03-.346,4.8,4.8,0,0,0,1.631-.988,4.632,4.632,0,0,0,1.078-1.531,4.788,4.788,0,0,0,.4-1.933v-.081a4.815,4.815,0,0,0-.4-1.939,4.714,4.714,0,0,0-1.078-1.527,4.8,4.8,0,0,0-1.631-.988,5.928,5.928,0,0,0-2.03-.351,5.834,5.834,0,0,0-2.024.351,4.856,4.856,0,0,0-1.6.988,4.566,4.566,0,0,0-1.079,1.527,4.736,4.736,0,0,0-.4,1.939v.081a4.507,4.507,0,0,0,1.454,3.485,5.244,5.244,0,0,0,3.65,1.313" transform="translate(1237.577 38.15)" fill="#0b447a"/>
      <path id="Path_132" data-name="Path 132" d="M1444.716,64.907a14.776,14.776,0,0,1-9.017-3.136l2.546-3.87a14.215,14.215,0,0,0,3.436,1.854,9.192,9.192,0,0,0,3.19.624,3.319,3.319,0,0,0,1.9-.426,1.316,1.316,0,0,0,.614-1.123v-.083a1.136,1.136,0,0,0-.358-.812,2.87,2.87,0,0,0-.958-.6,13.7,13.7,0,0,0-1.39-.485c-.524-.154-1.074-.325-1.652-.5-.731-.207-1.463-.462-2.215-.753a7.946,7.946,0,0,1-2.013-1.17,5.521,5.521,0,0,1-1.468-1.762,5.25,5.25,0,0,1-.566-2.546v-.081a6.238,6.238,0,0,1,.6-2.807,6.329,6.329,0,0,1,1.648-2.076,6.946,6.946,0,0,1,2.433-1.272,9.985,9.985,0,0,1,2.992-.426,13.451,13.451,0,0,1,4.055.637,15.031,15.031,0,0,1,3.794,1.757l-2.277,4.064a19.3,19.3,0,0,0-3.058-1.409,8.147,8.147,0,0,0-2.626-.524,2.756,2.756,0,0,0-1.651.413,1.223,1.223,0,0,0-.548,1.022V49.5a1.006,1.006,0,0,0,.356.753,3.758,3.758,0,0,0,.939.624,12.9,12.9,0,0,0,1.353.552c.517.19,1.054.37,1.631.55.729.233,1.474.507,2.228.827a9.814,9.814,0,0,1,2.042,1.185,6.055,6.055,0,0,1,1.493,1.7,4.8,4.8,0,0,1,.59,2.444v.079a6.872,6.872,0,0,1-.614,3,5.506,5.506,0,0,1-1.709,2.07,7.676,7.676,0,0,1-2.561,1.216,11.837,11.837,0,0,1-3.154.408" transform="translate(1261.617 38.187)" fill="#0b447a"/>
      <path id="Path_133" data-name="Path 133" d="M1348.081,22.33h3.275l6.923,16.242h-3.71l-1.479-3.615h-6.838l-1.472,3.615h-3.621Zm3.742,9.5-2.151-5.232-2.139,5.232Z" transform="translate(1178.541 19.622)" fill="#104277"/>
      <path id="Path_134" data-name="Path 134" d="M1351.233,32.393V24.4h3.508v6.889c0,1.661.791,2.506,2.128,2.506s2.186-.845,2.186-2.506V24.4h3.513V36.748h-3.513V35a4.358,4.358,0,0,1-3.613,1.986c-2.663,0-4.209-1.753-4.209-4.59" transform="translate(1187.393 21.444)" fill="#104277"/>
      <path id="Path_135" data-name="Path 135" d="M1359.934,34.721V28.872h-1.473V25.879h1.473V22.725h3.511v3.154h2.906v2.993h-2.906v5.274c0,.81.346,1.2,1.132,1.2a3.521,3.521,0,0,0,1.728-.436v2.8a5.136,5.136,0,0,1-2.767.72c-2.156,0-3.6-.851-3.6-3.714" transform="translate(1193.743 19.969)" fill="#104277"/>
      <path id="Path_136" data-name="Path 136" d="M1363.535,30.753V30.7a6.493,6.493,0,0,1,6.721-6.425,6.424,6.424,0,0,1,6.669,6.384V30.7a6.7,6.7,0,0,1-13.391.049m9.929,0V30.7a3.287,3.287,0,0,0-3.256-3.406A3.169,3.169,0,0,0,1367,30.663V30.7a3.286,3.286,0,0,0,3.258,3.408,3.166,3.166,0,0,0,3.208-3.359" transform="translate(1198.203 21.335)" fill="#104277"/>
      <path id="Path_137" data-name="Path 137" d="M1372.012,24.514h3.512v2.491a3.832,3.832,0,0,1,3.953-2.724v3.667h-.195c-2.326,0-3.758,1.4-3.758,4.357v4.554h-3.512Z" transform="translate(1205.653 21.333)" fill="#104277"/>
      <path id="Path_138" data-name="Path 138" d="M1377.185,22.025h3.694v3.109h-3.694Zm.09,4.468h3.516V38.838h-3.516Z" transform="translate(1210.198 19.354)" fill="#104277"/>
      <path id="Path_139" data-name="Path 139" d="M1380.64,34.288l6.395-7.043h-6.19V24.4H1391.4v2.461l-6.419,7.049h6.419v2.835H1380.64Z" transform="translate(1213.235 21.444)" fill="#104277"/>
      <path id="Path_140" data-name="Path 140" d="M1387.387,33.272v-.051c0-2.7,2.053-3.938,4.986-3.938a8.818,8.818,0,0,1,3.031.5v-.209c0-1.445-.908-2.258-2.664-2.258a9.1,9.1,0,0,0-3.414.669l-.876-2.673a10.936,10.936,0,0,1,4.8-.984,5.712,5.712,0,0,1,4.181,1.377,5.346,5.346,0,0,1,1.343,3.94v7.164h-3.392V35.476a4.766,4.766,0,0,1-3.743,1.571c-2.338,0-4.248-1.341-4.248-3.774m8.062-.815v-.622a5.607,5.607,0,0,0-2.244-.458c-1.5,0-2.423.6-2.423,1.708v.049c0,.936.78,1.488,1.912,1.488,1.644,0,2.755-.9,2.755-2.164" transform="translate(1219.163 21.38)" fill="#104277"/>
      <path id="Path_141" data-name="Path 141" d="M1477.713,97.532a.46.46,0,0,1-.381-.2c-1.033-1.527-2-3.126-2.878-4.748a.466.466,0,0,1,.185-.628.472.472,0,0,1,.634.19,53.9,53.9,0,0,0,2.823,4.665.467.467,0,0,1-.124.644.434.434,0,0,1-.26.079m91.142-.453A.443.443,0,0,1,1568.6,97a.467.467,0,0,1-.134-.639,51.786,51.786,0,0,0,2.785-4.7.464.464,0,0,1,.821.434,54.466,54.466,0,0,1-2.831,4.776.47.47,0,0,1-.385.2M1472.5,87.851a.455.455,0,0,1-.428-.286,55.233,55.233,0,0,1-1.868-5.223.465.465,0,1,1,.891-.271,52.628,52.628,0,0,0,1.838,5.14.464.464,0,0,1-.432.639m101.485-.505a.6.6,0,0,1-.175-.03.459.459,0,0,1-.254-.607,52.368,52.368,0,0,0,1.782-5.159.464.464,0,0,1,.576-.312.452.452,0,0,1,.311.573,55,55,0,0,1-1.809,5.245.473.473,0,0,1-.431.289M1469.322,77.324a.457.457,0,0,1-.451-.378c-.352-1.807-.61-3.656-.781-5.493a.471.471,0,0,1,.426-.5.463.463,0,0,1,.5.421,53.273,53.273,0,0,0,.769,5.4.469.469,0,0,1-.364.547.738.738,0,0,1-.1.008m107.722-.543a.48.48,0,0,1-.086-.008.465.465,0,0,1-.374-.541,51.154,51.154,0,0,0,.707-5.411.473.473,0,0,1,.516-.423.466.466,0,0,1,.418.5c-.146,1.843-.394,3.7-.721,5.507a.47.47,0,0,1-.459.376M1468.327,66.375h0a.457.457,0,0,1-.453-.47,54.522,54.522,0,0,1,.313-5.539.463.463,0,1,1,.921.1c-.188,1.8-.3,3.628-.316,5.448a.464.464,0,0,1-.46.46m109.608-.558a.468.468,0,0,1-.462-.455c-.037-1.815-.163-3.647-.373-5.443a.464.464,0,0,1,.4-.515.472.472,0,0,1,.517.406c.211,1.824.337,3.688.375,5.539a.463.463,0,0,1-.452.468ZM1469.514,55.443a.4.4,0,0,1-.1-.009.472.472,0,0,1-.364-.549c.384-1.8.867-3.609,1.428-5.366a.464.464,0,0,1,.885.28,53.9,53.9,0,0,0-1.4,5.277.463.463,0,0,1-.451.366m107.124-.543a.458.458,0,0,1-.45-.361c-.4-1.774-.886-3.543-1.452-5.259a.451.451,0,0,1,.3-.582.446.446,0,0,1,.576.289c.58,1.751,1.08,3.553,1.485,5.349a.469.469,0,0,1-.357.55.33.33,0,0,1-.1.013M1472.86,44.97a.364.364,0,0,1-.175-.041.46.46,0,0,1-.245-.607,53.549,53.549,0,0,1,2.475-4.971.46.46,0,0,1,.626-.177.468.468,0,0,1,.178.629,52.805,52.805,0,0,0-2.427,4.888.475.475,0,0,1-.431.278m100.318-.511a.456.456,0,0,1-.417-.269c-.749-1.653-1.581-3.293-2.48-4.86a.477.477,0,0,1,.167-.639.465.465,0,0,1,.628.173,55.059,55.059,0,0,1,2.529,4.947.455.455,0,0,1-.427.648m-94.933-9.076a.473.473,0,0,1-.266-.085.463.463,0,0,1-.11-.644c1.061-1.511,2.207-2.983,3.407-4.381a.474.474,0,0,1,.658-.045.454.454,0,0,1,.05.65c-1.183,1.373-2.312,2.824-3.362,4.306a.447.447,0,0,1-.376.2m89.455-.449a.465.465,0,0,1-.374-.2c-1.056-1.471-2.2-2.91-3.4-4.274a.46.46,0,0,1,.693-.6,54.709,54.709,0,0,1,3.46,4.34.46.46,0,0,1-.116.644.423.423,0,0,1-.262.09m-82.261-7.876a.454.454,0,0,1-.337-.143.468.468,0,0,1,.02-.661,55.391,55.391,0,0,1,4.213-3.605.461.461,0,0,1,.563.729,54,54,0,0,0-4.147,3.556.455.455,0,0,1-.312.124m74.992-.38a.427.427,0,0,1-.311-.126c-1.337-1.232-2.743-2.414-4.184-3.509a.46.46,0,1,1,.556-.733c1.474,1.108,2.9,2.313,4.258,3.566a.463.463,0,0,1-.32.8m-66.3-6.352a.463.463,0,0,1-.4-.22.472.472,0,0,1,.146-.635c1.568-.979,3.2-1.886,4.854-2.7a.462.462,0,1,1,.411.829,53.194,53.194,0,0,0-4.765,2.658.484.484,0,0,1-.247.07m57.534-.293a.419.419,0,0,1-.24-.066c-1.544-.941-3.156-1.82-4.8-2.611a.455.455,0,0,1-.216-.614.466.466,0,0,1,.616-.218,55.066,55.066,0,0,1,4.875,2.657.463.463,0,0,1,.156.635.458.458,0,0,1-.4.218M1504,15.47a.479.479,0,0,1-.439-.3.472.472,0,0,1,.277-.6c1.726-.643,3.508-1.206,5.292-1.674a.479.479,0,0,1,.571.331.473.473,0,0,1-.343.567,53.022,53.022,0,0,0-5.2,1.644.428.428,0,0,1-.163.032m37.761-.194a.458.458,0,0,1-.164-.024,51.777,51.777,0,0,0-5.219-1.593.467.467,0,0,1-.333-.562.454.454,0,0,1,.557-.336,55.211,55.211,0,0,1,5.315,1.618.469.469,0,0,1,.273.594.456.456,0,0,1-.43.3m-27.13-2.589a.478.478,0,0,1-.46-.389.465.465,0,0,1,.4-.528,55.453,55.453,0,0,1,5.521-.584.456.456,0,0,1,.483.441.466.466,0,0,1-.444.485,54.44,54.44,0,0,0-5.422.573c-.022,0-.045,0-.074,0m16.466-.083a.534.534,0,0,1-.076-.008c-1.787-.257-3.615-.434-5.432-.513a.461.461,0,1,1,.045-.921c1.843.081,3.7.256,5.529.52a.457.457,0,0,1,.383.522.446.446,0,0,1-.449.4" transform="translate(1289.887 9.81)" fill="#1d70b3"/>
      <path id="Path_142" data-name="Path 142" d="M1481.612,107.448a58.675,58.675,0,1,1,86.57-.376l-1.38-1.246a56.817,56.817,0,1,0-83.828.359Z" transform="translate(1288.293 7.89)" fill="#1b3c6d"/>
      <path id="Path_143" data-name="Path 143" d="M1483.84,79.442a.3.3,0,0,1-.26-.139,35.794,35.794,0,0,1-1.981-3.258.318.318,0,0,1,.136-.43.323.323,0,0,1,.433.13c.584,1.093,1.236,2.172,1.926,3.205a.3.3,0,0,1-.079.44.337.337,0,0,1-.174.053m62.542-.308a.289.289,0,0,1-.174-.053.313.313,0,0,1-.089-.441c.682-1.037,1.325-2.121,1.908-3.226a.318.318,0,0,1,.429-.132.329.329,0,0,1,.134.43c-.594,1.118-1.243,2.224-1.945,3.275a.319.319,0,0,1-.264.147M1480.256,72.8a.311.311,0,0,1-.292-.2,37.389,37.389,0,0,1-1.283-3.583.317.317,0,1,1,.606-.186,36.877,36.877,0,0,0,1.267,3.526.327.327,0,0,1-.181.415.266.266,0,0,1-.116.026m69.64-.348a.561.561,0,0,1-.123-.021.32.32,0,0,1-.169-.419,36.152,36.152,0,0,0,1.218-3.538.322.322,0,0,1,.619.178c-.348,1.214-.784,2.425-1.248,3.6a.327.327,0,0,1-.3.2m-71.813-6.882a.315.315,0,0,1-.311-.256,37.116,37.116,0,0,1-.537-3.771.31.31,0,0,1,.3-.344.3.3,0,0,1,.332.286c.12,1.242.3,2.489.532,3.711a.322.322,0,0,1-.253.374ZM1552,65.207a.152.152,0,0,1-.056-.008.31.31,0,0,1-.252-.372,35.729,35.729,0,0,0,.483-3.714.321.321,0,0,1,.345-.289.317.317,0,0,1,.287.338c-.1,1.27-.273,2.542-.491,3.784a.323.323,0,0,1-.316.261m-74.605-7.145h0a.307.307,0,0,1-.308-.319,37.334,37.334,0,0,1,.213-3.8.317.317,0,0,1,.352-.28.333.333,0,0,1,.285.351,36.011,36.011,0,0,0-.22,3.739.318.318,0,0,1-.322.314m75.215-.378a.313.313,0,0,1-.311-.316c-.029-1.246-.115-2.5-.268-3.739a.322.322,0,0,1,.641-.071,37.516,37.516,0,0,1,.257,3.8.323.323,0,0,1-.312.327Zm-74.4-7.124a.2.2,0,0,1-.063-.006.319.319,0,0,1-.25-.376c.263-1.238.594-2.478.974-3.686a.328.328,0,0,1,.407-.2.316.316,0,0,1,.2.4,37.355,37.355,0,0,0-.959,3.624.315.315,0,0,1-.311.248m73.512-.374a.326.326,0,0,1-.314-.242,35.641,35.641,0,0,0-1-3.613.318.318,0,0,1,.6-.2,36.392,36.392,0,0,1,1.013,3.673.316.316,0,0,1-.238.378.293.293,0,0,1-.068.006M1480.5,43.372a.44.44,0,0,1-.124-.021.321.321,0,0,1-.164-.421,38.094,38.094,0,0,1,1.7-3.414.306.306,0,0,1,.425-.118.32.32,0,0,1,.129.432c-.606,1.088-1.169,2.213-1.665,3.354a.324.324,0,0,1-.3.188m68.846-.348a.312.312,0,0,1-.291-.188,37.3,37.3,0,0,0-1.7-3.333.32.32,0,0,1,.556-.317c.626,1.1,1.2,2.241,1.726,3.391a.317.317,0,0,1-.17.423.26.26,0,0,1-.119.024m-65.147-6.23a.286.286,0,0,1-.179-.058.318.318,0,0,1-.084-.441,37.958,37.958,0,0,1,2.348-3.006.317.317,0,0,1,.476.419,36.746,36.746,0,0,0-2.3,2.952.32.32,0,0,1-.258.135m61.388-.31a.344.344,0,0,1-.27-.131A36.014,36.014,0,0,0,1543,33.422a.313.313,0,0,1,.017-.449.326.326,0,0,1,.453.028,36.055,36.055,0,0,1,2.373,2.982.322.322,0,0,1-.066.443.306.306,0,0,1-.185.058m-56.463-5.4a.292.292,0,0,1-.221-.1.322.322,0,0,1,.009-.449,37.469,37.469,0,0,1,2.9-2.48.321.321,0,0,1,.443.06.327.327,0,0,1-.053.443A34.926,34.926,0,0,0,1489.358,31a.348.348,0,0,1-.23.085m51.471-.256a.307.307,0,0,1-.218-.088c-.916-.844-1.873-1.655-2.873-2.409a.321.321,0,0,1-.058-.445.317.317,0,0,1,.445-.058c1.009.765,1.989,1.588,2.917,2.448a.314.314,0,0,1,.02.451.339.339,0,0,1-.233.1m-45.494-4.361a.331.331,0,0,1-.273-.148.32.32,0,0,1,.1-.44c1.081-.667,2.2-1.294,3.334-1.851a.315.315,0,0,1,.278.565c-1.111.55-2.22,1.165-3.271,1.824a.37.37,0,0,1-.167.049m39.483-.2a.332.332,0,0,1-.17-.045,37.254,37.254,0,0,0-3.287-1.789.311.311,0,0,1-.153-.426.323.323,0,0,1,.425-.148c1.144.55,2.267,1.163,3.354,1.819a.314.314,0,0,1,.093.438.286.286,0,0,1-.261.152m-32.719-3.134a.317.317,0,0,1-.115-.613,24.092,24.092,0,0,1,3.636-1.152.333.333,0,0,1,.406.182,9.476,9.476,0,0,0-.889.607c-1,.284-1.952.592-2.928.953a.345.345,0,0,1-.111.023m25.912-.13a.268.268,0,0,1-.109-.023,35.709,35.709,0,0,0-3.58-1.09.324.324,0,0,1-.235-.385.33.33,0,0,1,.389-.233c1.23.31,2.452.684,3.644,1.11a.324.324,0,0,1,.193.41.317.317,0,0,1-.3.21m-18.856-2.32c.188-.032.638-.1.826-.122,1.064-.156,2.076-.3,3.149-.364a.319.319,0,0,1,.346.3.326.326,0,0,1-.3.334c-.757.039-2.282.212-2.282.212a3.731,3.731,0,0,0-1.741-.361m11.541.488a.214.214,0,0,1-.042-.008q-1.857-.265-3.742-.353a.313.313,0,0,1-.3-.329.323.323,0,0,1,.331-.3,36.34,36.34,0,0,1,3.8.361.308.308,0,0,1,.265.355.3.3,0,0,1-.308.276" transform="translate(1297.984 17.73)" fill="#1b3c6d"/>
      <path id="Path_144" data-name="Path 144" d="M1502.494,21.916A35.8,35.8,0,0,0,1487.7,80.071l.837-.77a34.647,34.647,0,0,1,12.587-55.667,7.326,7.326,0,0,1,1.368-1.717" transform="translate(1298.986 19.258)" fill="#1d70b3"/>
      <path id="Path_145" data-name="Path 145" d="M1496.207,22.138s1.762-.1,2.654-.1a34.654,34.654,0,0,1,25.665,57.931l.838.755a35.778,35.778,0,0,0-26.5-59.819c-1.148,0-3.408.16-3.408.16a2.835,2.835,0,0,1,.754,1.071" transform="translate(1314.126 18.372)" fill="#1d70b3"/>
      <path id="Path_146" data-name="Path 146" d="M1483.292,55.06a.3.3,0,0,1-.227-.1c-.439-.47-.868-.956-1.27-1.449a.312.312,0,0,1,.04-.442.321.321,0,0,1,.452.039c.4.479.816.956,1.236,1.415a.318.318,0,0,1-.012.445.3.3,0,0,1-.219.092" transform="translate(1302.058 46.567)" fill="#1b3c6d"/>
      <path id="Path_147" data-name="Path 147" d="M1512.24,54.935a.307.307,0,0,1-.211-.083.311.311,0,0,1-.015-.447c.412-.468.832-.949,1.225-1.428a.318.318,0,0,1,.5.4c-.406.49-.827.979-1.258,1.454a.327.327,0,0,1-.236.1" transform="translate(1328.603 46.45)" fill="#1b3c6d"/>
      <path id="Path_148" data-name="Path 148" d="M1476.92,61.993a.455.455,0,0,1-.341-.148c-.629-.68-1.252-1.388-1.844-2.1a.464.464,0,0,1,.714-.592c.583.7,1.194,1.394,1.814,2.065a.466.466,0,0,1-.028.658.453.453,0,0,1-.314.12" transform="translate(1295.825 51.832)" fill="#1d70b3"/>
      <path id="Path_149" data-name="Path 149" d="M1519.114,61.814a.455.455,0,0,1-.341-.767c.613-.684,1.219-1.385,1.784-2.089a.472.472,0,0,1,.656-.064.456.456,0,0,1,.068.65c-.585.714-1.2,1.428-1.827,2.119a.45.45,0,0,1-.34.15" transform="translate(1334.508 51.662)" fill="#1d70b3"/>
      <path id="Path_150" data-name="Path 150" d="M1481.661,58.872a1.434,1.434,0,1,1-1.431-1.433,1.429,1.429,0,0,1,1.431,1.433" transform="translate(1299.487 50.474)" fill="#1d70b3"/>
      <path id="Path_151" data-name="Path 151" d="M1517.046,58.988a1.434,1.434,0,1,1-1.427-1.432,1.43,1.43,0,0,1,1.427,1.432" transform="translate(1330.58 50.577)" fill="#1d70b3"/>
      <path id="Path_152" data-name="Path 152" d="M1474.528,58.5l4.741-3.521c1.483-1.1,3.047-1.06,4.2.492a2.627,2.627,0,0,1,.306,2.58l-1.894-.233c.13-.408.23-.936.059-1.176-.413-.543-1.042-.043-1.431.246l-4.634,3.438Z" transform="translate(1295.738 47.643)" fill="#bb172d"/>
      <path id="Path_153" data-name="Path 153" d="M1475.535,56.465l2.806-1.5c.659-.357,1.045-.772.638-1.539s-.97-.68-1.641-.323l-2.8,1.5-1-1.86,3.16-1.695c1.734-.926,2.921.009,3.764,1.584s.964,3.077-.774,4.005l-3.151,1.689Z" transform="translate(1294.868 44.536)" fill="#bb172d"/>
      <path id="Path_154" data-name="Path 154" d="M1477.123,46.707c2.4-.793,3.76.079,4.452,2.164.426,1.3.332,3.26-1.1,3.928l-.744-2.247a.719.719,0,0,0,.3-.517,1.344,1.344,0,0,0-.06-.618c-.352-1.082-1.128-1.058-2.04-.753l-.271.083a2.436,2.436,0,0,1,1.361,1.546,2.893,2.893,0,0,1-1.962,3.742,3.08,3.08,0,0,1-4.017-1.89,2.036,2.036,0,0,1,.224-1.922l-.007-.023-.59.2-.665-2.008Zm-.822,5.285a1.358,1.358,0,0,0-.857-2.578,1.358,1.358,0,0,0,.857,2.578" transform="translate(1293.528 40.789)" fill="#bb172d"/>
      <path id="Path_155" data-name="Path 155" d="M1477.167,42.534l.3,2.095-.658.09.006.023a2.068,2.068,0,0,1,1.1,1.661,3.179,3.179,0,0,1-6.279.924,2.494,2.494,0,0,1,.5-1.935l-.567.083-.3-2.089Zm-2.263,5.135a1.358,1.358,0,1,0-1.522-1.154,1.275,1.275,0,0,0,1.522,1.154" transform="translate(1292.883 37.376)" fill="#bb172d"/>
      <path id="Path_156" data-name="Path 156" d="M1472.269,41.9v-.023a2.059,2.059,0,0,1-1.047-1.933V39.54l2.033.015a1.76,1.76,0,0,0-.205.891c0,1.176.773,1.464,1.791,1.471l2.411.011-.016,2.112-5.955-.03.013-2.108Z" transform="translate(1292.833 34.745)" fill="#bb172d"/>
      <rect id="Rectangle_22" data-name="Rectangle 22" width="2.113" height="9.631" transform="translate(2761.209 68.111) rotate(-79.079)" fill="#bb172d"/>
      <path id="Path_157" data-name="Path 157" d="M1476.836,32.11l-1.344,4.237a1.189,1.189,0,0,0,1.664-.86,1.064,1.064,0,0,0-.212-1.131l.61-1.933a2.426,2.426,0,0,1,1.125,1.541,3.633,3.633,0,0,1-.094,1.963c-.6,1.881-2.111,2.95-4.065,2.326a3.038,3.038,0,0,1-2.036-4.1,3.027,3.027,0,0,1,4.141-2.108Zm-1.755,1.5a1.176,1.176,0,0,0-1.253.857,1.192,1.192,0,0,0,.512,1.482Z" transform="translate(1293.768 27.972)" fill="#bb172d"/>
      <path id="Path_158" data-name="Path 158" d="M1480.8,30c2.243,1.154,2.584,2.735,1.581,4.687-.629,1.219-2.09,2.525-3.577,1.973l1.084-2.106a.72.72,0,0,0,.581-.141,1.365,1.365,0,0,0,.4-.475c.52-1.009-.039-1.548-.894-1.988l-.251-.128a2.473,2.473,0,0,1-.138,2.059,2.9,2.9,0,0,1-4.049,1.219,3.081,3.081,0,0,1-1.477-4.186,2.038,2.038,0,0,1,1.535-1.186l.013-.021-.558-.284.961-1.883Zm-4.347,3.119a1.358,1.358,0,0,0,1.239-2.416,1.358,1.358,0,0,0-1.239,2.416" transform="translate(1295.027 24.199)" fill="#bb172d"/>
      <path id="Path_159" data-name="Path 159" d="M1483.833,27.472l-1.275,1.681-.528-.4-.015.019a2.1,2.1,0,0,1-.409,1.954,3.181,3.181,0,0,1-5.065-3.831,2.433,2.433,0,0,1,1.738-1l-.457-.351,1.282-1.681Zm-5.25,1.988a1.358,1.358,0,0,0,1.647-2.159,1.358,1.358,0,0,0-1.647,2.159" transform="translate(1296.979 20.971)" fill="#bb172d"/>
      <rect id="Rectangle_23" data-name="Rectangle 23" width="2.111" height="9.634" transform="translate(2774.823 40.895) rotate(-45.359)" fill="#bb172d"/>
      <path id="Path_160" data-name="Path 160" d="M1483.917,23.311c.412.59,1.107,1.093,1.8.607a1.178,1.178,0,0,0,.443-1.268l1.364-.661a2.613,2.613,0,0,1-1.089,2.942,2.747,2.747,0,0,1-4.039-.8c-1-1.415-1.03-3.053.472-4.116,1.533-1.077,3-.432,4,.975l.115.16Zm1.231-2.1a1.2,1.2,0,0,0-1.549-.321,1.173,1.173,0,0,0-.227,1.571Z" transform="translate(1302.027 17.116)" fill="#1b3c6d"/>
      <path id="Path_161" data-name="Path 161" d="M1487.074,19.153a1.255,1.255,0,0,0-.941.066.519.519,0,0,0-.242.678c.2.366.78.19,1.4.137a1.652,1.652,0,0,1,1.817.881,2.057,2.057,0,0,1-.983,2.831,2.619,2.619,0,0,1-2.215.122l.187-1.2a1.724,1.724,0,0,0,1.375.006.616.616,0,0,0,.284-.851c-.24-.438-.8-.271-1.416-.214a1.519,1.519,0,0,1-1.714-.774,1.757,1.757,0,0,1,.719-2.482,2.972,2.972,0,0,1,1.89-.353Z" transform="translate(1304.394 15.778)" fill="#1b3c6d"/>
      <path id="Path_162" data-name="Path 162" d="M1496.181,21.239l-2.036.582-.17-.631-.03,0a2.113,2.113,0,0,1-1.485,1.328,3.069,3.069,0,0,1-3.775-2.223,3.029,3.029,0,0,1,1.987-3.868,2.378,2.378,0,0,1,1.981.235l-.157-.56,2.029-.586Zm-5.4-1.533a1.362,1.362,0,0,0,2.617-.755,1.362,1.362,0,0,0-2.617.755" transform="translate(1308.057 13.638)" fill="#bb172d"/>
      <path id="Path_163" data-name="Path 163" d="M1494.978,16.047l.017,0a2.126,2.126,0,0,1,1.7-1.054,3.067,3.067,0,0,1,3.323,2.861,3.017,3.017,0,0,1-2.638,3.451,2.435,2.435,0,0,1-1.915-.567l.366,3.517-2.1.22-.932-8.877,2.11-.218Zm.167,2.305a1.359,1.359,0,0,0,2.7-.284,1.359,1.359,0,0,0-2.7.284" transform="translate(1311.795 13.156)" fill="#bb172d"/>
      <path id="Path_164" data-name="Path 164" d="M1504.223,18.367c-.138,2.014-1.887,3.042-3.795,2.91s-3.5-1.39-3.357-3.416,1.891-3.053,3.8-2.92,3.5,1.4,3.35,3.425m-4.932-.344a1.359,1.359,0,0,0,2.711.19,1.359,1.359,0,0,0-2.711-.19" transform="translate(1315.539 13.12)" fill="#bb172d"/>
      <path id="Path_165" data-name="Path 165" d="M1505.975,17.532a2.64,2.64,0,0,0-1.06-.519c-.233-.047-.672-.03-.727.263-.079.4.556.59.821.7.928.4,1.562,1.005,1.335,2.078-.319,1.537-1.848,1.884-3.2,1.6a4.537,4.537,0,0,1-2.206-1.163l1.051-1.287a3.3,3.3,0,0,0,1.506.934c.259.056.669.013.737-.306.1-.457-.545-.611-1.151-.919a1.493,1.493,0,0,1-.982-1.8c.3-1.437,1.721-1.8,3.008-1.535a4.71,4.71,0,0,1,1.828.778Z" transform="translate(1318.947 13.621)" fill="#bb172d"/>
      <path id="Path_166" data-name="Path 166" d="M1506.17,23.319l-2-.693,1.379-3.977-.649-.225.566-1.646.652.222.583-1.687,2,.69-.581,1.689,1.129.389-.568,1.65-1.131-.391Z" transform="translate(1321.788 13.455)" fill="#bb172d"/>
      <path id="Path_167" data-name="Path 167" d="M1511.592,24.942l-1.888-.954.3-.586-.017-.006a2.119,2.119,0,0,1-1.993-.047,3.071,3.071,0,0,1-1.253-4.2,3.04,3.04,0,0,1,4.095-1.482,2.419,2.419,0,0,1,1.295,1.529l.259-.524,1.892.956Zm-2.908-4.8a1.359,1.359,0,1,0,1.819-.584,1.3,1.3,0,0,0-1.819.584" transform="translate(1323.721 15.245)" fill="#bb172d"/>
      <path id="Path_168" data-name="Path 168" d="M1514.24,21.175l.015.011a2.1,2.1,0,0,1,2.191.246l.332.24-1.181,1.655a1.8,1.8,0,0,0-.612-.678c-.957-.676-1.647-.2-2.235.626l-1.39,1.961-1.725-1.217,3.443-4.86,1.721,1.217Z" transform="translate(1326.588 16.836)" fill="#bb172d"/>
      <rect id="Rectangle_24" data-name="Rectangle 24" width="9.636" height="2.111" transform="matrix(0.654, -0.756, 0.756, 0.654, 2840.298, 43.864)" fill="#bb172d"/>
      <path id="Path_169" data-name="Path 169" d="M1518.814,28.738l-3-3.284a1.188,1.188,0,0,0-.089,1.871,1.063,1.063,0,0,0,1.092.376l1.36,1.5a2.428,2.428,0,0,1-1.891.209,3.59,3.59,0,0,1-1.657-1.069c-1.327-1.46-1.5-3.3.021-4.686a3.043,3.043,0,0,1,4.57.295,3.032,3.032,0,0,1-.246,4.642Zm-.414-2.268a1.205,1.205,0,0,0-.118-1.52,1.189,1.189,0,0,0-1.539-.293Z" transform="translate(1330.05 19.998)" fill="#bb172d"/>
      <path id="Path_170" data-name="Path 170" d="M1518.843,34.26l-.785-1.394.449-.255,0-.024a1.985,1.985,0,0,1-1.378-1,3.071,3.071,0,0,1,5.278-3,2.114,2.114,0,0,1,.153,1.743l.472-.267.78,1.392Zm1.782-2.66a1.369,1.369,0,1,0-1.328-2.354,1.371,1.371,0,1,0,1.328,2.354" transform="translate(1332.886 24.03)" fill="#1b3c6d"/>
      <rect id="Rectangle_25" data-name="Rectangle 25" width="9.84" height="1.626" transform="matrix(0.944, -0.33, 0.33, 0.944, 2853.3, 62.174)" fill="#1b3c6d"/>
      <path id="Path_171" data-name="Path 171" d="M1520.318,40.156l-.374-1.559.511-.116,0-.024a1.949,1.949,0,0,1-1.045-1.341,3.069,3.069,0,0,1,5.9-1.411,2.122,2.122,0,0,1-.331,1.712l.517-.124.37,1.559Zm2.444-2.054a1.369,1.369,0,1,0-.614-2.632,1.372,1.372,0,1,0,.614,2.632" transform="translate(1335.114 29.671)" fill="#1b3c6d"/>
      <path id="Path_172" data-name="Path 172" d="M1526.744,44.392a2.382,2.382,0,0,0,.579-1.51c0-.421-.247-.977-.736-.977s-.707.618-.832,1.013l-.17.581c-.35,1.217-.971,2.164-2.385,2.166a2.971,2.971,0,0,1-2.361-.9,3.835,3.835,0,0,1-.825-2.48A5.377,5.377,0,0,1,1521,39.2l1.826.973a3.15,3.15,0,0,0-.893,2.022c0,.535.273,1.1.884,1.1.637-.006.852-.9.995-1.383.405-1.435.77-2.377,2.468-2.378a2.841,2.841,0,0,1,2.947,3.012,5.98,5.98,0,0,1-.719,2.737Z" transform="translate(1335.708 34.449)" fill="#bb172d"/>
      <path id="Path_173" data-name="Path 173" d="M1519.539,49.439l.341-2.08.652.109.01-.021a2.094,2.094,0,0,1-.55-1.92,3.063,3.063,0,0,1,3.632-2.441,3.031,3.031,0,0,1,2.627,3.466,2.434,2.434,0,0,1-1.069,1.693l.577.094-.352,2.082Zm3.708-4.2a1.358,1.358,0,1,0,1.107,1.563,1.3,1.3,0,0,0-1.107-1.563" transform="translate(1335.292 37.821)" fill="#bb172d"/>
      <rect id="Rectangle_26" data-name="Rectangle 26" width="2.113" height="9.633" transform="matrix(0.287, -0.958, 0.958, 0.287, 2853.826, 90.392)" fill="#bb172d"/>
      <path id="Path_174" data-name="Path 174" d="M1524.351,52.709l-2.906-1.287c-.693-.3-1.25-.349-1.6.449s.062,1.182.75,1.488l2.911,1.283-.851,1.931-3.281-1.447c-1.793-.791-1.789-2.3-1.069-3.932s1.824-2.658,3.621-1.867l3.283,1.445Z" transform="translate(1333.806 43.106)" fill="#bb172d"/>
      <path id="Path_175" data-name="Path 175" d="M1517.022,55.98l.009-.019a2.092,2.092,0,0,1,.294-1.973,3.177,3.177,0,0,1,5.283,3.508,2.448,2.448,0,0,1-1.673,1.1l3.541,2.363-1.17,1.757-8.009-5.354,1.177-1.753Zm3.386-.915a1.358,1.358,0,0,0-1.507,2.258,1.357,1.357,0,0,0,1.507-2.258" transform="translate(1331.563 46.295)" fill="#bb172d"/>
      <path id="Path_176" data-name="Path 176" d="M1487.148,52.9a3.765,3.765,0,0,1-2.645-1.845c-1.672-2.531-2.968-5.223-2.558-8.411a2.066,2.066,0,0,1,.194-.843,1.157,1.157,0,0,1,.7-.545,1.086,1.086,0,0,1,.779.421,1.442,1.442,0,0,1,.255.9c-.3,3.066,1.019,5.606,2.541,8.1.4.642.694,1.343,1.041,2.023-.1.064-.2.131-.307.2" transform="translate(1302.188 36.251)" fill="#1b3c6d" fill-rule="evenodd"/>
      <path id="Path_177" data-name="Path 177" d="M1480.844,47.8c-.768-2.623-.055-4.569.3-3.254,1.786,6.788,6.077,9.046,4.82,8.892-1.927-.235-4.152-3.119-5.116-5.638" transform="translate(1300.987 38.776)" fill="#1b3c6d" fill-rule="evenodd"/>
      <path id="Path_178" data-name="Path 178" d="M1507.381,48.376c-.936.421-1.85.885-2.749,1.379-1.769.969-3.937-.169-5.529.727a.874.874,0,0,0,.046,1.58,17.474,17.474,0,0,0,2.037.094,8.408,8.408,0,0,0,6.879-2.989c.2-.224.529-.635.344-.891-.209-.276-.73-.032-1.028.1" transform="translate(1316.9 42.311)" fill="#1b3c6d"/>
      <path id="Path_179" data-name="Path 179" d="M1541.09,52.314a14.866,14.866,0,0,1-3.648.577,59.7,59.7,0,0,1-9.75-1.674,27.311,27.311,0,0,1-9.961-4.919c-2.6-2.117-8.253-11.041-8.532-11.635a54.37,54.37,0,0,1-3.457-10.85,4.712,4.712,0,0,0-.109-.519,2.713,2.713,0,0,0-2.279-2.05,5.341,5.341,0,0,0-3.941,1.221,12.085,12.085,0,0,0-3.936,5.362c-1.072,2.893-1.421,3.656-1.438,5.9a37.632,37.632,0,0,0,3.943,14.69c-1.619.819-3.168,1.648-4.759,2.407-2.57,1.219-5.1,2.456-7.02,4.65a8.288,8.288,0,0,0-2.285,6.7,13.613,13.613,0,0,0,3.208,7.325,1.715,1.715,0,0,1,.436,1.674,3.382,3.382,0,0,0,.076,1.475c.447,2.057,1.784,3.634,3.023,5.227a1.371,1.371,0,0,1,.163,1.715,4.794,4.794,0,0,0-.248,4.1,9.155,9.155,0,0,0,6.488,5.612c.736.2,1.508.363,2.312.55a2.4,2.4,0,0,0-.493,1.877,2.428,2.428,0,0,0,.834,1.693c1.344,1.276,2.878,1.343,4.672,1.037a15.216,15.216,0,0,0,7.177-3.622,1.963,1.963,0,0,1,.823-.473c2.221-.432,4.439-.964,6.686-1.2a19.68,19.68,0,0,0,9.936-3.757c1.729-1.268,3.373-2.574,4.216-4.635a12.7,12.7,0,0,0,.671-2.694,7.759,7.759,0,0,0-.8-4.387,4.086,4.086,0,0,0-1.3-1.373c-.612-.419-1.032-.124-.931.614a6.069,6.069,0,0,0,.459,1.61,6.837,6.837,0,0,1,.167,5c-.89,2.912-3.342,4.466-5.7,6a9.438,9.438,0,0,1-3.089,1.242c-2.159.462-4.353.725-6.53,1.1-.857.147-1.692.378-2.652.594a7.8,7.8,0,0,0,.207-1.082,3.058,3.058,0,0,0-.084-1.33,5.091,5.091,0,0,0-1.173-1.633c-.514-.457-.474-.842-.366-1.45.22-1.15.345-2.343-.715-3.258a.7.7,0,0,1-.2-.535,2.945,2.945,0,0,0-1.335-2.933c.371-.447.869-.836,1.036-1.086a3.95,3.95,0,0,0,.422-.83,4.587,4.587,0,0,0-.371-2.632,14.514,14.514,0,0,0-4.178-5.924.935.935,0,0,1-.31-1.294c1.441-2.73.883-5.321-.709-7.75-1.379-2.093-2.926-4.06-4.3-6.147-.936-1.422-1.712-2.952-2.637-4.563,2.656.509,3.859.137,4.28-1.127a23.722,23.722,0,0,1-2.858-.368c-1.2-.287-2.377-.759-2.79-2.061a44,44,0,0,1-1.507-5.539,15.069,15.069,0,0,1,1.261-9.057,9.068,9.068,0,0,1,4.348-4.817c1.175-.52,2.224-.532,2.458,1.174a33.976,33.976,0,0,0,1.266,5.772c1.961,6.145,5.621,11.3,9.769,16.129a18.127,18.127,0,0,0,6.26,4.819,40.59,40.59,0,0,0,11.629,3.551c2.739.438,5.421,1.037,7.913.225.792-.259.8-1.323.262-2.422m-50.366,22.06c-.413-.532-.729-1.14-1.093-1.715.068-.036.146-.075.211-.107q2.2,1.465,4.4,2.936a12.338,12.338,0,0,0,6.493,1.991,25.64,25.64,0,0,0,7.21-.453c.581-.145,1.331.7,1.324,1.464a2.733,2.733,0,0,1-1.8,2.495,11.532,11.532,0,0,1-5.517.306,18.539,18.539,0,0,1-5.073-1.37c-2.756-1.114-4.433-3.339-6.157-5.548m20.354,11.474c.286.116.286.564.31.853a3.627,3.627,0,0,1-1.693,3.224,15.937,15.937,0,0,1-3.67,2.309,4.972,4.972,0,0,1-1.568.3,5.068,5.068,0,0,1-2.216-.267,1.324,1.324,0,0,1-.964-1.127c-.035-.607-.1-1.379.9-1.48a15.005,15.005,0,0,0,6.6-2.305c.542-.349,1.023-.793,1.545-1.161.229-.156.493-.453.751-.348m-1.091-4.154a4.113,4.113,0,0,1-1.719,3.942,9.615,9.615,0,0,1-4.727,1.783,11.859,11.859,0,0,1-7.787-1.169,5.934,5.934,0,0,1-3.116-6.127c5.57,3.575,11.26,4.785,17.35,1.571M1498.1,50.078c.437-.261.649-.218.972.254,1.577,2.305,3.252,4.543,4.823,6.857,1.329,1.969,2.361,4.047,1.2,6.506-.031.077-.088.141-.087.126-1.53-.669-2.976-1.306-4.421-1.922a1,1,0,0,1-.758-.947c-.088-1.507-1.185-2.211-2.415-2.741-.207-.094-.643-.132-.793.092s.05.6.2.8c.359.507.8.958,1.327,1.571a6.541,6.541,0,0,0-1.859-.224c-.44.1-1.171.37-1.191.866-.021.44.608.684.986.875a10.419,10.419,0,0,0,1.745.6,17.644,17.644,0,0,1,9.967,7.464,16.265,16.265,0,0,1,1.329,2.074,1.955,1.955,0,0,1-1.775,2.968,25.347,25.347,0,0,1-8.884-.4,14.515,14.515,0,0,1-4.709-2.486,38.913,38.913,0,0,1-5-4.575,10.564,10.564,0,0,1-2.684-8.5,5.763,5.763,0,0,1,2.869-4.19c2.234-1.4,4.6-2.595,6.909-3.868.744-.413,1.514-.789,2.253-1.216" transform="translate(1303.936 18.642)" fill="#1b3c6d"/>
      <path id="Path_180" data-name="Path 180" d="M1484.6,74.681a4.766,4.766,0,0,1-1.894-.37,4.541,4.541,0,0,1-2.488-2.519,4.877,4.877,0,0,1-.355-1.86v-.024a4.811,4.811,0,0,1,.355-1.852,4.866,4.866,0,0,1,.989-1.52,4.6,4.6,0,0,1,1.525-1.026,4.893,4.893,0,0,1,1.945-.378,6.732,6.732,0,0,1,1.185.1,5.03,5.03,0,0,1,.963.293,4.079,4.079,0,0,1,.81.449,6.7,6.7,0,0,1,.691.579l-1.3,1.49a4.925,4.925,0,0,0-1.1-.763,2.785,2.785,0,0,0-1.255-.276,2.547,2.547,0,0,0-1.93.844,2.973,2.973,0,0,0-.552.913,3.041,3.041,0,0,0-.2,1.118v.028a3.079,3.079,0,0,0,.2,1.12,2.734,2.734,0,0,0,.552.921,2.492,2.492,0,0,0,1.93.857,2.858,2.858,0,0,0,1.343-.286,5.229,5.229,0,0,0,1.085-.795l1.287,1.306a6.043,6.043,0,0,1-.738.686,4.36,4.36,0,0,1-.839.524,4.814,4.814,0,0,1-.987.333,6.4,6.4,0,0,1-1.219.109" transform="translate(1300.423 57.233)" fill="#1b3c6d"/>
      <path id="Path_181" data-name="Path 181" d="M1488.592,71.931a1.9,1.9,0,0,0,.769-.154,1.722,1.722,0,0,0,.57-.417,1.881,1.881,0,0,0,.368-.611,2.4,2.4,0,0,0,.118-.746v-.028a2.18,2.18,0,0,0-.127-.746,1.958,1.958,0,0,0-.385-.616,1.882,1.882,0,0,0-.6-.428,1.708,1.708,0,0,0-.75-.16,1.8,1.8,0,0,0-.77.154,1.709,1.709,0,0,0-.574.415,1.748,1.748,0,0,0-.361.612,2.086,2.086,0,0,0-.123.746v.023a1.959,1.959,0,0,0,.13.748,1.888,1.888,0,0,0,.381.622,2.076,2.076,0,0,0,.581.427,1.8,1.8,0,0,0,.77.16m-.033,1.727a3.959,3.959,0,0,1-1.512-.282,3.57,3.57,0,0,1-2-1.945,3.377,3.377,0,0,1-.3-1.428v-.028a3.4,3.4,0,0,1,.3-1.43,3.6,3.6,0,0,1,.8-1.167,3.772,3.772,0,0,1,1.214-.789,3.923,3.923,0,0,1,1.536-.295,3.873,3.873,0,0,1,1.508.287,3.639,3.639,0,0,1,1.212.78,3.543,3.543,0,0,1,.795,1.157,3.488,3.488,0,0,1,.291,1.433v.023a3.491,3.491,0,0,1-.291,1.435,3.565,3.565,0,0,1-.807,1.165,3.876,3.876,0,0,1-1.2.795,4.049,4.049,0,0,1-1.537.288" transform="translate(1304.718 58.256)" fill="#1b3c6d"/>
      <rect id="Rectangle_27" data-name="Rectangle 27" width="2.005" height="9.63" transform="translate(2798.394 122.124)" fill="#1b3c6d"/>
      <path id="Path_182" data-name="Path 182" d="M1492.381,65h2.1v1.785h-2.1Zm-.212,11.78a4.158,4.158,0,0,1-.47-.019c-.126-.013-.266-.03-.4-.058V75.133a2.26,2.26,0,0,0,.422.039.738.738,0,0,0,.515-.182.845.845,0,0,0,.194-.633V67.564h2.009v6.95a2.3,2.3,0,0,1-.575,1.723,2.368,2.368,0,0,1-1.693.547" transform="translate(1310.472 57.121)" fill="#1b3c6d"/>
      <path id="Path_183" data-name="Path 183" d="M1496.321,73.569a2.247,2.247,0,0,1-1.769-.7,2.781,2.781,0,0,1-.627-1.926v-4.58h2V70.3a1.592,1.592,0,0,0,.312,1.069,1.121,1.121,0,0,0,.9.368,1.18,1.18,0,0,0,.919-.368,1.512,1.512,0,0,0,.339-1.069V66.366h2v7.072h-2V72.429a4.034,4.034,0,0,1-.385.432,2.55,2.55,0,0,1-.453.363,2.1,2.1,0,0,1-.552.252,2.355,2.355,0,0,1-.686.094" transform="translate(1312.781 58.319)" fill="#1b3c6d"/>
      <path id="Path_184" data-name="Path 184" d="M1503.091,69.41a2.1,2.1,0,0,0-.473-1.09,1.476,1.476,0,0,0-2.037-.008,2.023,2.023,0,0,0-.51,1.1Zm-1.295,4.248a4.083,4.083,0,0,1-1.467-.263,3.465,3.465,0,0,1-1.177-.751,3.351,3.351,0,0,1-.768-1.157A3.818,3.818,0,0,1,1498.1,70v-.028a3.876,3.876,0,0,1,.26-1.422,3.5,3.5,0,0,1,.717-1.174,3.284,3.284,0,0,1,1.1-.789,3.344,3.344,0,0,1,1.416-.295,3.461,3.461,0,0,1,1.535.319,3.1,3.1,0,0,1,1.07.847,3.589,3.589,0,0,1,.631,1.231,5.1,5.1,0,0,1,.205,1.441v.254c-.009.09-.015.18-.026.276H1500.1a1.668,1.668,0,0,0,.592,1.037,1.816,1.816,0,0,0,1.136.348,2.216,2.216,0,0,0,.9-.171,3.07,3.07,0,0,0,.818-.552l1.144,1.013a3.559,3.559,0,0,1-1.215.971,3.8,3.8,0,0,1-1.675.35" transform="translate(1316.457 58.256)" fill="#1b3c6d"/>
      <path id="Path_185" data-name="Path 185" d="M1506.175,71.26a2,2,0,0,0,.682-.122,1.749,1.749,0,0,0,.542-.335,1.619,1.619,0,0,0,.358-.524,1.564,1.564,0,0,0,.138-.656V69.6a1.561,1.561,0,0,0-.138-.658,1.649,1.649,0,0,0-.358-.526,1.755,1.755,0,0,0-.542-.336,2,2,0,0,0-.682-.12,1.874,1.874,0,0,0-.69.12,1.677,1.677,0,0,0-.541.336,1.513,1.513,0,0,0-.362.526,1.6,1.6,0,0,0-.132.658v.026a1.531,1.531,0,0,0,.489,1.187,1.764,1.764,0,0,0,1.236.449m-.244,4.374a7.117,7.117,0,0,1-1.67-.19,6.212,6.212,0,0,1-1.455-.547l.679-1.5a6.029,6.029,0,0,0,1.116.473,4.417,4.417,0,0,0,1.273.171,2.115,2.115,0,0,0,1.525-.489,1.949,1.949,0,0,0,.5-1.439v-.34a3.733,3.733,0,0,1-.979.845,2.684,2.684,0,0,1-1.332.3,3.31,3.31,0,0,1-1.184-.216,2.938,2.938,0,0,1-1-.637,3.051,3.051,0,0,1-.7-1.039,3.52,3.52,0,0,1-.251-1.4V69.6a3.5,3.5,0,0,1,.258-1.407,3.2,3.2,0,0,1,.7-1.037,2.938,2.938,0,0,1,1.005-.635,3.156,3.156,0,0,1,1.173-.224,2.693,2.693,0,0,1,1.344.306,4.1,4.1,0,0,1,.942.753v-.924h2v5.477a3.777,3.777,0,0,1-.9,2.779,2.923,2.923,0,0,1-1.26.725,6.172,6.172,0,0,1-1.785.224" transform="translate(1320.275 58.255)" fill="#1b3c6d"/>
      <path id="Path_186" data-name="Path 186" d="M1514.689,73.618a4.97,4.97,0,0,1-3.035-1.067l.853-1.321a5.01,5.01,0,0,0,1.156.635,3.109,3.109,0,0,0,1.077.209,1.1,1.1,0,0,0,.64-.143.442.442,0,0,0,.2-.383v-.024a.358.358,0,0,0-.121-.278.9.9,0,0,0-.319-.207,3.832,3.832,0,0,0-.469-.16c-.184-.055-.352-.109-.554-.175a6.419,6.419,0,0,1-.744-.257,2.585,2.585,0,0,1-.681-.4,1.948,1.948,0,0,1-.494-.6,1.814,1.814,0,0,1-.189-.87v-.03a2.107,2.107,0,0,1,.2-.954,2.051,2.051,0,0,1,.553-.7,2.448,2.448,0,0,1,.821-.436,3.226,3.226,0,0,1,1-.145,4.622,4.622,0,0,1,1.375.22,5.028,5.028,0,0,1,1.272.6l-.773,1.381a6.359,6.359,0,0,0-1.025-.481,2.633,2.633,0,0,0-.88-.177.878.878,0,0,0-.553.137.408.408,0,0,0-.192.351v.024a.334.334,0,0,0,.123.259,1.183,1.183,0,0,0,.312.207,3.655,3.655,0,0,0,.457.2c.172.058.355.124.542.182.251.081.491.177.758.284a3.4,3.4,0,0,1,.691.406,1.908,1.908,0,0,1,.494.579,1.636,1.636,0,0,1,.2.832v.025a2.413,2.413,0,0,1-.2,1.022,1.884,1.884,0,0,1-.575.708,2.483,2.483,0,0,1-.872.411,3.731,3.731,0,0,1-1.054.139" transform="translate(1328.362 58.27)" fill="#1b3c6d"/>
      <path id="Path_187" data-name="Path 187" d="M1509.484,74.063a3.893,3.893,0,0,0,3.9-3.9,3.837,3.837,0,0,0-.264-1.409s-.083-.192-.206-.182-.152.265-.155.534a5.328,5.328,0,0,1-.735,2.414c-.248.449-.376.579-.609.5,0,0-.257-.051-.054-.449a8.346,8.346,0,0,0,.862-4.143c-.141-2.02-.645-1.088-.744-.887a1.751,1.751,0,0,0-.118.847,8.7,8.7,0,0,1-2.419,6s-.729.676.539.678" transform="translate(1325.798 58.129)" fill="#bb172d"/>
      <path id="Path_188" data-name="Path 188" d="M1507.7,72.211a3.917,3.917,0,0,1,2.042-5.867s.673-.323.673.458-.093,3.759-2.072,5.308c0,0-.467.351-.643.1" transform="translate(1324.328 58.241)" fill="#f5af2a"/>
      <path id="Path_189" data-name="Path 189" d="M1507.758,73.47c-.264.342-.277.751.268.644a3.76,3.76,0,0,0,2.291-1.856,8.675,8.675,0,0,0,1.235-5.834s-.115-.8-.427-.468a1.555,1.555,0,0,0-.509,1.246c.007.6-.041,4.223-2.286,5.807a1.887,1.887,0,0,0-.572.46" transform="translate(1324.783 57.889)" fill="#1b3c6d"/>
      <path id="Path_190" data-name="Path 190" d="M1484.6,74.681a4.766,4.766,0,0,1-1.894-.37,4.541,4.541,0,0,1-2.488-2.519,4.877,4.877,0,0,1-.355-1.86v-.024a4.811,4.811,0,0,1,.355-1.852,4.866,4.866,0,0,1,.989-1.52,4.6,4.6,0,0,1,1.525-1.026,4.893,4.893,0,0,1,1.945-.378,6.732,6.732,0,0,1,1.185.1,5.03,5.03,0,0,1,.963.293,4.079,4.079,0,0,1,.81.449,6.7,6.7,0,0,1,.691.579l-1.3,1.49a4.925,4.925,0,0,0-1.1-.763,2.785,2.785,0,0,0-1.255-.276,2.547,2.547,0,0,0-1.93.844,2.973,2.973,0,0,0-.552.913,3.041,3.041,0,0,0-.2,1.118v.028a3.079,3.079,0,0,0,.2,1.12,2.734,2.734,0,0,0,.552.921,2.492,2.492,0,0,0,1.93.857,2.858,2.858,0,0,0,1.343-.286,5.229,5.229,0,0,0,1.085-.795l1.287,1.306a6.043,6.043,0,0,1-.738.686,4.36,4.36,0,0,1-.839.524,4.814,4.814,0,0,1-.987.333,6.4,6.4,0,0,1-1.219.109" transform="translate(1300.423 57.233)" fill="#1b3c6d"/>
      <path id="Path_191" data-name="Path 191" d="M1488.592,71.931a1.9,1.9,0,0,0,.769-.154,1.722,1.722,0,0,0,.57-.417,1.881,1.881,0,0,0,.368-.611,2.4,2.4,0,0,0,.118-.746v-.028a2.18,2.18,0,0,0-.127-.746,1.958,1.958,0,0,0-.385-.616,1.882,1.882,0,0,0-.6-.428,1.708,1.708,0,0,0-.75-.16,1.8,1.8,0,0,0-.77.154,1.709,1.709,0,0,0-.574.415,1.748,1.748,0,0,0-.361.612,2.086,2.086,0,0,0-.123.746v.023a1.959,1.959,0,0,0,.13.748,1.888,1.888,0,0,0,.381.622,2.076,2.076,0,0,0,.581.427,1.8,1.8,0,0,0,.77.16m-.033,1.727a3.959,3.959,0,0,1-1.512-.282,3.57,3.57,0,0,1-2-1.945,3.377,3.377,0,0,1-.3-1.428v-.028a3.4,3.4,0,0,1,.3-1.43,3.6,3.6,0,0,1,.8-1.167,3.772,3.772,0,0,1,1.214-.789,3.923,3.923,0,0,1,1.536-.295,3.873,3.873,0,0,1,1.508.287,3.639,3.639,0,0,1,1.212.78,3.543,3.543,0,0,1,.795,1.157,3.488,3.488,0,0,1,.291,1.433v.023a3.491,3.491,0,0,1-.291,1.435,3.565,3.565,0,0,1-.807,1.165,3.876,3.876,0,0,1-1.2.795,4.049,4.049,0,0,1-1.537.288" transform="translate(1304.718 58.256)" fill="#1b3c6d"/>
      <rect id="Rectangle_28" data-name="Rectangle 28" width="2.005" height="9.63" transform="translate(2798.394 122.124)" fill="#1b3c6d"/>
      <path id="Path_192" data-name="Path 192" d="M1492.381,65h2.1v1.785h-2.1Zm-.212,11.78a4.158,4.158,0,0,1-.47-.019c-.126-.013-.266-.03-.4-.058V75.133a2.26,2.26,0,0,0,.422.039.738.738,0,0,0,.515-.182.845.845,0,0,0,.194-.633V67.564h2.009v6.95a2.3,2.3,0,0,1-.575,1.723,2.368,2.368,0,0,1-1.693.547" transform="translate(1310.472 57.121)" fill="#1b3c6d"/>
      <path id="Path_193" data-name="Path 193" d="M1496.321,73.569a2.247,2.247,0,0,1-1.769-.7,2.781,2.781,0,0,1-.627-1.926v-4.58h2V70.3a1.592,1.592,0,0,0,.312,1.069,1.121,1.121,0,0,0,.9.368,1.18,1.18,0,0,0,.919-.368,1.512,1.512,0,0,0,.339-1.069V66.366h2v7.072h-2V72.429a4.034,4.034,0,0,1-.385.432,2.55,2.55,0,0,1-.453.363,2.1,2.1,0,0,1-.552.252,2.355,2.355,0,0,1-.686.094" transform="translate(1312.781 58.319)" fill="#1b3c6d"/>
      <path id="Path_194" data-name="Path 194" d="M1503.091,69.41a2.1,2.1,0,0,0-.473-1.09,1.476,1.476,0,0,0-2.037-.008,2.023,2.023,0,0,0-.51,1.1Zm-1.295,4.248a4.083,4.083,0,0,1-1.467-.263,3.465,3.465,0,0,1-1.177-.751,3.351,3.351,0,0,1-.768-1.157A3.818,3.818,0,0,1,1498.1,70v-.028a3.876,3.876,0,0,1,.26-1.422,3.5,3.5,0,0,1,.717-1.174,3.284,3.284,0,0,1,1.1-.789,3.344,3.344,0,0,1,1.416-.295,3.461,3.461,0,0,1,1.535.319,3.1,3.1,0,0,1,1.07.847,3.589,3.589,0,0,1,.631,1.231,5.1,5.1,0,0,1,.205,1.441v.254c-.009.09-.015.18-.026.276H1500.1a1.668,1.668,0,0,0,.592,1.037,1.816,1.816,0,0,0,1.136.348,2.216,2.216,0,0,0,.9-.171,3.07,3.07,0,0,0,.818-.552l1.144,1.013a3.559,3.559,0,0,1-1.215.971,3.8,3.8,0,0,1-1.675.35" transform="translate(1316.457 58.256)" fill="#1b3c6d"/>
      <path id="Path_195" data-name="Path 195" d="M1506.175,71.26a2,2,0,0,0,.682-.122,1.749,1.749,0,0,0,.542-.335,1.619,1.619,0,0,0,.358-.524,1.564,1.564,0,0,0,.138-.656V69.6a1.561,1.561,0,0,0-.138-.658,1.649,1.649,0,0,0-.358-.526,1.755,1.755,0,0,0-.542-.336,2,2,0,0,0-.682-.12,1.874,1.874,0,0,0-.69.12,1.677,1.677,0,0,0-.541.336,1.513,1.513,0,0,0-.362.526,1.6,1.6,0,0,0-.132.658v.026a1.531,1.531,0,0,0,.489,1.187,1.764,1.764,0,0,0,1.236.449m-.244,4.374a7.117,7.117,0,0,1-1.67-.19,6.212,6.212,0,0,1-1.455-.547l.679-1.5a6.029,6.029,0,0,0,1.116.473,4.417,4.417,0,0,0,1.273.171,2.115,2.115,0,0,0,1.525-.489,1.949,1.949,0,0,0,.5-1.439v-.34a3.733,3.733,0,0,1-.979.845,2.684,2.684,0,0,1-1.332.3,3.31,3.31,0,0,1-1.184-.216,2.938,2.938,0,0,1-1-.637,3.051,3.051,0,0,1-.7-1.039,3.52,3.52,0,0,1-.251-1.4V69.6a3.5,3.5,0,0,1,.258-1.407,3.2,3.2,0,0,1,.7-1.037,2.938,2.938,0,0,1,1.005-.635,3.156,3.156,0,0,1,1.173-.224,2.693,2.693,0,0,1,1.344.306,4.1,4.1,0,0,1,.942.753v-.924h2v5.477a3.777,3.777,0,0,1-.9,2.779,2.923,2.923,0,0,1-1.26.725,6.172,6.172,0,0,1-1.785.224" transform="translate(1320.275 58.255)" fill="#1b3c6d"/>
      <path id="Path_196" data-name="Path 196" d="M1514.689,73.618a4.97,4.97,0,0,1-3.035-1.067l.853-1.321a5.01,5.01,0,0,0,1.156.635,3.109,3.109,0,0,0,1.077.209,1.1,1.1,0,0,0,.64-.143.442.442,0,0,0,.2-.383v-.024a.358.358,0,0,0-.121-.278.9.9,0,0,0-.319-.207,3.832,3.832,0,0,0-.469-.16c-.184-.055-.352-.109-.554-.175a6.419,6.419,0,0,1-.744-.257,2.585,2.585,0,0,1-.681-.4,1.948,1.948,0,0,1-.494-.6,1.814,1.814,0,0,1-.189-.87v-.03a2.107,2.107,0,0,1,.2-.954,2.051,2.051,0,0,1,.553-.7,2.448,2.448,0,0,1,.821-.436,3.226,3.226,0,0,1,1-.145,4.622,4.622,0,0,1,1.375.22,5.028,5.028,0,0,1,1.272.6l-.773,1.381a6.359,6.359,0,0,0-1.025-.481,2.633,2.633,0,0,0-.88-.177.878.878,0,0,0-.553.137.408.408,0,0,0-.192.351v.024a.334.334,0,0,0,.123.259,1.183,1.183,0,0,0,.312.207,3.655,3.655,0,0,0,.457.2c.172.058.355.124.542.182.251.081.491.177.758.284a3.4,3.4,0,0,1,.691.406,1.908,1.908,0,0,1,.494.579,1.636,1.636,0,0,1,.2.832v.025a2.413,2.413,0,0,1-.2,1.022,1.884,1.884,0,0,1-.575.708,2.483,2.483,0,0,1-.872.411,3.731,3.731,0,0,1-1.054.139" transform="translate(1328.362 58.27)" fill="#1b3c6d"/>
      <path id="Path_197" data-name="Path 197" d="M1509.484,74.063a3.893,3.893,0,0,0,3.9-3.9,3.837,3.837,0,0,0-.264-1.409s-.083-.192-.206-.182-.152.265-.155.534a5.328,5.328,0,0,1-.735,2.414c-.248.449-.376.579-.609.5,0,0-.257-.051-.054-.449a8.346,8.346,0,0,0,.862-4.143c-.141-2.02-.645-1.088-.744-.887a1.751,1.751,0,0,0-.118.847,8.7,8.7,0,0,1-2.419,6s-.729.676.539.678" transform="translate(1325.798 58.129)" fill="#bb172d"/>
      <path id="Path_198" data-name="Path 198" d="M1507.7,72.211a3.917,3.917,0,0,1,2.042-5.867s.673-.323.673.458-.093,3.759-2.072,5.308c0,0-.467.351-.643.1" transform="translate(1324.328 58.241)" fill="#f5af2a"/>
      <path id="Path_199" data-name="Path 199" d="M1507.758,73.47c-.264.342-.277.751.268.644a3.76,3.76,0,0,0,2.291-1.856,8.675,8.675,0,0,0,1.235-5.834s-.115-.8-.427-.468a1.555,1.555,0,0,0-.509,1.246c.007.6-.041,4.223-2.286,5.807a1.887,1.887,0,0,0-.572.46" transform="translate(1324.783 57.889)" fill="#1b3c6d"/>
    </g>
  </g>
</svg>
